<?xml version="1.0" encoding="UTF-8" standalone="no"?>
<!-- Created with Inkscape (http://www.inkscape.org/) -->

<svg
   width="551.53552"
   height="216.45135"
   viewBox="0 0 551.53552 216.45135"
   version="1.1"
   id="svg1"
   xml:space="preserve"
   inkscape:version="1.3.2 (091e20e, 2023-11-25, custom)"
   sodipodi:docname="lux4-zhang.svg"
   inkscape:export-filename="site.png"
   inkscape:export-xdpi="96"
   inkscape:export-ydpi="96"
   xmlns:inkscape="http://www.inkscape.org/namespaces/inkscape"
   xmlns:sodipodi="http://sodipodi.sourceforge.net/DTD/sodipodi-0.dtd"
   xmlns="http://www.w3.org/2000/svg"
   xmlns:svg="http://www.w3.org/2000/svg"><sodipodi:namedview
     id="namedview1"
     pagecolor="#ffffff"
     bordercolor="#000000"
     borderopacity="0.25"
     inkscape:showpageshadow="2"
     inkscape:pageopacity="0.0"
     inkscape:pagecheckerboard="0"
     inkscape:deskcolor="#d1d1d1"
     inkscape:document-units="px"
     inkscape:zoom="2"
     inkscape:cx="209.25"
     inkscape:cy="184.75"
     inkscape:window-width="2560"
     inkscape:window-height="1377"
     inkscape:window-x="-8"
     inkscape:window-y="-8"
     inkscape:window-maximized="1"
     inkscape:current-layer="g76"
     showguides="true" /><defs
     id="defs1"><rect
       x="17.141299"
       y="145.42457"
       width="161.45998"
       height="67.459307"
       id="rect1" /></defs><g
     inkscape:label="Layer 1"
     inkscape:groupmode="layer"
     id="layer1"
     transform="translate(-184.95682,-513.93384)"><g
       id="g76"
       style="display:inline"
       transform="matrix(3.3599135,0,0,3.3599135,97.007816,32.114647)"
       inkscape:export-filename="..\..\..\GitHub\shrimple-website\dist\lux1.svg"
       inkscape:export-xdpi="96"
       inkscape:export-ydpi="96"
       inkscape:label="name-paths"><path
         id="path3"
         style="font-weight:300;font-stretch:condensed;font-size:78.6667px;font-family:' Std';-inkscape-font-specification:' Std Light Condensed';fill:#000000;letter-spacing:-1.5px;display:inline"
         d="m 586.17752,656.97486 c -5.01909,0 -9.66688,1.27908 -13.94336,3.83984 -4.27647,2.56076 -7.67013,6.03125 -10.17968,10.41016 -2.48394,4.3789 -3.72657,9.14192 -3.72657,14.28906 0,3.84114 0.72983,7.51519 2.18946,11.02344 1.48524,3.48263 3.47114,6.50564 5.95507,9.0664 2.50956,2.53516 5.47874,4.55752 8.91016,6.06836 3.43142,1.51085 7.0306,2.26563 10.79492,2.26563 5.0447,0 9.704,-1.27908 13.98047,-3.83985 4.27648,-2.56076 7.65669,-6.0178 10.14063,-10.37109 2.48394,-4.3533 3.72656,-9.06641 3.72656,-14.13672 v -0.0762 c 0,-5.17274 -1.24262,-9.94922 -3.72656,-14.32813 -2.48394,-4.37891 -5.86415,-7.83594 -10.14063,-10.37109 -4.27647,-2.56076 -8.93577,-3.83984 -13.98047,-3.83984 z m -150.43164,0.30664 c -0.15364,0 -0.65299,0.2055 -1.49804,0.61523 -1.30599,0.66579 -3.18815,1.45898 -5.64649,2.38086 -0.46093,0.15365 -0.76823,0.29384 -0.92187,0.42188 -0.12804,0.12803 -0.19141,0.32009 -0.19141,0.57617 0,0.25607 0.10178,0.43663 0.30664,0.53906 0.23047,0.10243 0.6799,0.21766 1.3457,0.3457 0.92188,0.15365 1.52301,0.37066 1.80469,0.65235 0.30729,0.25607 0.46094,0.69205 0.46094,1.30664 v 43.21289 c 0,1.53645 -0.20552,2.56011 -0.61524,3.07226 -0.38411,0.51216 -1.22916,0.8444 -2.53515,0.99805 -0.3329,0.0256 -0.60178,0.14279 -0.80664,0.34766 -0.17926,0.20486 -0.26758,0.40842 -0.26758,0.61328 0,0.61458 0.33225,0.92187 0.99805,0.92187 0.15364,0 0.72982,-0.0519 1.72851,-0.15429 1.02431,-0.10244 2.24002,-0.15235 3.64844,-0.15235 1.56206,0 2.8431,0.025 3.8418,0.0762 1.0243,0.0512 1.72916,0.1031 2.11328,0.1543 0.38413,0.0512 0.60114,0.0762 0.65234,0.0762 0.71701,0 1.07617,-0.25542 1.07617,-0.76758 0,-0.33289 -0.11523,-0.57682 -0.3457,-0.73046 -0.20487,-0.15365 -0.6658,-0.28234 -1.38281,-0.38477 -1.25477,-0.17925 -2.13824,-0.52496 -2.65039,-1.03711 -0.48655,-0.51215 -0.73047,-1.24197 -0.73047,-2.18945 v -21.16406 c 0,-1.79254 0.82009,-3.41928 2.45898,-4.87891 1.71571,-1.45964 3.62283,-2.18945 5.72266,-2.18945 2.023,0 3.64973,0.65299 4.8789,1.95898 1.04992,1.12673 1.57422,2.67665 1.57422,4.64844 v 22.00976 c 0,0.9731 -0.19205,1.65105 -0.57617,2.03516 -0.38411,0.38411 -1.11393,0.65299 -2.18945,0.80664 -0.51215,0.0768 -0.88282,0.19206 -1.11328,0.3457 -0.23048,0.12804 -0.34571,0.35851 -0.34571,0.69141 0,0.30729 0.0768,0.52626 0.23047,0.6543 0.17926,0.12803 0.48655,0.1914 0.92188,0.1914 0.0256,0 0.53646,-0.0519 1.53515,-0.15429 1.02431,-0.10244 2.3303,-0.15235 3.91797,-0.15235 0.92188,0 1.83225,0.025 2.72852,0.0762 0.92188,0.0512 1.65169,0.1031 2.18945,0.1543 0.56337,0.0512 0.85721,0.0762 0.88281,0.0762 0.74262,0 1.11329,-0.25542 1.11329,-0.76758 0,-0.33289 -0.16515,-0.57682 -0.49805,-0.73046 -0.30729,-0.17926 -0.85851,-0.30794 -1.65235,-0.38477 -0.87065,-0.0768 -1.49869,-0.39562 -1.88281,-0.95898 -0.3585,-0.56338 -0.53711,-1.47375 -0.53711,-2.72852 V 685.8988 c -0.10243,-2.94487 -1.01085,-5.17274 -2.72656,-6.68359 -1.71571,-1.51085 -3.78993,-2.26758 -6.22266,-2.26758 -2.99609,0 -6.0191,1.52496 -9.0664,4.57227 -0.30729,0.30729 -0.62609,0.46094 -0.95899,0.46094 -0.25608,0 -0.38476,-0.18056 -0.38476,-0.53907 V 658.3949 c 0,-0.74263 -0.12869,-1.11328 -0.38477,-1.11328 z m 150.43164,2.84179 c 4.27647,0 8.25781,1.17926 11.94532,3.53516 3.7131,2.3559 6.63238,5.47873 8.75781,9.37109 2.15104,3.89236 3.22656,8.05426 3.22656,12.48438 0,4.3789 -1.07552,8.51389 -3.22656,12.40625 -2.15104,3.86675 -5.08377,6.97808 -8.79688,9.33398 -3.6875,2.35591 -7.65538,3.53516 -11.90625,3.53516 -3.17535,0 -6.24826,-0.69141 -9.21875,-2.07422 -2.94487,-1.40842 -5.49349,-3.25217 -7.64453,-5.53125 -2.12543,-2.30469 -3.82899,-4.9935 -5.10937,-8.06641 -1.28038,-3.09852 -1.91993,-6.27517 -1.91993,-9.52734 v -0.0762 c 0,-3.27778 0.63955,-6.46593 1.91993,-9.56445 1.28038,-3.12414 2.98394,-5.8379 5.10937,-8.14258 2.12543,-2.3303 4.66059,-4.1875 7.60547,-5.57032 2.97048,-1.40841 6.05686,-2.11328 9.25781,-2.11328 z m -184.38476,0.46094 c -0.58898,0 -1.03646,0.84505 -1.34375,2.53516 -0.17926,1.0243 -0.37131,2.65105 -0.57617,4.8789 -0.17926,2.22787 -0.32141,3.73937 -0.42383,4.53321 -0.17926,1.30598 -0.26758,2.25281 -0.26758,2.84179 0,1.35721 0.26888,2.03516 0.80664,2.03516 0.58897,0 1.03646,-0.29383 1.34375,-0.88281 0.3329,-0.58898 0.6402,-1.43403 0.92187,-2.53516 0.3073,-1.10112 0.60113,-1.92122 0.88282,-2.45898 1.45963,-2.91927 3.73936,-4.73612 6.83789,-5.45313 1.30599,-0.30729 3.35525,-0.46094 6.14648,-0.46094 1.04991,0 1.86806,0.0499 2.45703,0.15235 0.58898,0.10242 0.94814,0.23112 1.07618,0.38476 0.15364,0.12804 0.23046,0.29514 0.23046,0.5 0,0.25608 -0.55121,1.5102 -1.65234,3.76368 l -20.20312,39.17968 c -0.74262,1.53646 -1.11524,2.3431 -1.11524,2.41992 0,0.20486 0.0903,0.47375 0.26953,0.80665 0.17926,0.30728 0.38477,0.46093 0.61524,0.46093 0.12804,0 0.58897,-0.025 1.38281,-0.0762 0.79383,-0.0512 2.04796,-0.1031 3.76367,-0.1543 1.71571,-0.0512 3.76497,-0.0762 6.14649,-0.0762 3.25216,0 6.0562,0.025 8.4121,0.0762 2.35591,0.0512 4.10938,0.1031 5.26172,0.1543 1.17796,0.0512 1.94618,0.0762 2.30469,0.0762 0.46094,0 0.78169,-0.14019 0.96094,-0.42187 0.17925,-0.3073 0.30599,-0.9987 0.38281,-2.07422 0.10243,-1.45964 0.1543,-4.81489 0.1543,-10.06445 0,-1.30599 -0.0634,-2.09918 -0.19141,-2.38086 -0.12804,-0.3073 -0.41038,-0.46094 -0.8457,-0.46094 -0.20486,0 -0.37196,0.0634 -0.5,0.19141 -0.17925,0.23046 -0.56337,1.49804 -1.15235,3.80273 -0.66579,2.66319 -1.61263,4.60872 -2.84179,5.83789 -1.22917,1.22917 -3.08637,2.06271 -5.57031,2.49805 -2.17665,0.38411 -5.3379,0.57617 -9.48633,0.57617 h -0.11524 c -0.92187,0 -1.5115,-0.0269 -1.76758,-0.0781 -0.23047,-0.0768 -0.3457,-0.21701 -0.3457,-0.42187 0,-0.20486 0.55121,-1.43403 1.65235,-3.6875 5.83853,-11.57465 12.4184,-24.53278 19.74218,-38.87305 1.10114,-2.15104 1.65235,-3.32834 1.65235,-3.5332 0,-0.30729 -0.17861,-0.46094 -0.53711,-0.46094 h -9.67969 -9.67969 c -1.89496,0 -3.09917,-0.52431 -3.61133,-1.57422 -0.0512,-0.0768 -0.12804,-0.21896 -0.23046,-0.42383 -0.0768,-0.23046 -0.14021,-0.38411 -0.19141,-0.46093 -0.0512,-0.10244 -0.12804,-0.21767 -0.23047,-0.34571 -0.10243,-0.12805 -0.23112,-0.21637 -0.38477,-0.26757 -0.12803,-0.0512 -0.28168,-0.0781 -0.46093,-0.0781 z m 228.86133,1.88281 c -1.92058,0 -3.6606,0.38411 -5.22266,1.15235 -1.53646,0.76822 -2.77908,1.78038 -3.72656,3.03515 -0.94749,1.25478 -1.6773,2.6491 -2.18946,4.18555 -0.48654,1.51085 -0.73047,3.07422 -0.73047,4.6875 0,0.89627 0.25738,1.34375 0.76954,1.34375 0.74262,0 1.11328,-0.47439 1.11328,-1.42187 0,-1.02431 0.1671,-2.09984 0.5,-3.22657 0.33289,-1.15234 0.81879,-2.26628 1.45898,-3.34179 0.64019,-1.07552 1.5102,-1.95899 2.61133,-2.65039 1.12674,-0.71702 2.38281,-1.07422 3.76562,-1.07422 2.38151,0 4.21181,0.8316 5.49219,2.49609 1.28038,1.63889 1.91992,4.05882 1.91992,7.25977 0,3.20095 -0.63954,6.49088 -1.91992,9.87109 -1.25477,3.3546 -3.61133,7.6951 -7.06836,13.02148 -0.76823,1.15235 -1.92057,2.89432 -3.45703,5.22461 -1.51084,2.33029 -2.63628,4.07227 -3.3789,5.22461 -0.0512,0.10244 -0.21832,0.37132 -0.5,0.80664 -0.28168,0.40973 -0.52561,0.78039 -0.73047,1.11328 -0.17926,0.3073 -0.35786,0.653 -0.53711,1.03711 -0.17926,0.35852 -0.26953,0.62739 -0.26953,0.80664 0,0.28168 0.0768,0.51216 0.23046,0.69141 0.15365,0.17925 0.33421,0.26953 0.53907,0.26953 h 16.13281 c 0.6658,0 1.74132,0.0499 3.22656,0.15235 l 2.6875,0.15429 c 0.48655,0 0.80729,-0.11523 0.96094,-0.3457 0.17925,-0.23047 0.26953,-0.71636 0.26953,-1.45898 v -10.67969 c 0,-1.63889 -0.25738,-2.45703 -0.76953,-2.45703 -0.28169,0 -0.51215,0.12673 -0.69141,0.38281 -0.10242,0.17925 -0.31944,1.153 -0.65234,2.91992 -0.38411,2.023 -1.08898,3.49609 -2.11328,4.41797 -1.02431,0.89627 -2.57227,1.49739 -4.64649,1.80469 -1.6901,0.25607 -4.41731,0.38476 -8.18164,0.38476 -1.51084,0 -2.26757,-0.20551 -2.26757,-0.61523 0,-0.28169 0.62804,-1.43403 1.88281,-3.45703 0.84505,-1.3316 2.12608,-3.16189 3.84179,-5.49219 1.74132,-2.33029 2.89367,-3.89366 3.45704,-4.6875 0.38411,-0.56337 1.0486,-1.49675 1.99609,-2.80273 0.94748,-1.306 1.69076,-2.3316 2.22852,-3.07422 0.53776,-0.76824 1.19075,-1.79189 1.95898,-3.07227 0.79383,-1.28038 1.39496,-2.40777 1.80469,-3.38086 0.43532,-0.97309 0.80794,-2.07357 1.11523,-3.30273 0.3329,-1.22917 0.49805,-2.40647 0.49805,-3.53321 v -0.0781 c 0,-3.89236 -0.9987,-6.91342 -2.9961,-9.06445 -1.99739,-2.15105 -4.80143,-3.22657 -8.4121,-3.22657 z m 28.80664,0 c -1.22918,0 -2.45834,0.30729 -3.6875,0.92188 -1.22917,0.58897 -2.44488,1.56271 -3.64844,2.91992 -1.17795,1.35721 -2.22851,3.0204 -3.15039,4.99219 -0.89627,1.94618 -1.62609,4.39301 -2.18946,7.33789 -0.56336,2.91927 -0.8457,6.13238 -0.8457,9.64062 v 0.0762 c 0,3.53384 0.28234,6.77387 0.8457,9.71875 0.56337,2.94487 1.29319,5.38975 2.18946,7.33593 0.92188,1.94618 1.97244,3.61133 3.15039,4.99414 1.20356,1.35721 2.41927,2.33095 3.64844,2.91993 1.22916,0.61457 2.45832,0.92187 3.6875,0.92187 1.22916,0 2.45833,-0.3073 3.6875,-0.92187 1.22916,-0.58898 2.43337,-1.56272 3.61132,-2.91993 1.20356,-1.38281 2.26563,-3.04796 3.1875,-4.99414 0.92188,-1.94618 1.66515,-4.39106 2.22852,-7.33593 0.56337,-2.94488 0.84375,-6.18491 0.84375,-9.71875 0,-3.53386 -0.28038,-6.77192 -0.84375,-9.7168 -0.56337,-2.94488 -1.30664,-5.39171 -2.22852,-7.33789 -0.92187,-1.94618 -1.98394,-3.59788 -3.1875,-4.95508 -1.17795,-1.38281 -2.38216,-2.36806 -3.61132,-2.95703 -1.22917,-0.61459 -2.45834,-0.92188 -3.6875,-0.92188 z m 28.3457,0 c -1.92057,0 -3.66254,0.38411 -5.22461,1.15235 -1.53646,0.76822 -2.77908,1.78038 -3.72656,3.03515 -0.94749,1.25478 -1.6773,2.6491 -2.18946,4.18555 -0.48654,1.51085 -0.72851,3.07422 -0.72851,4.6875 0,0.89627 0.25542,1.34375 0.76758,1.34375 0.74262,0 1.11328,-0.47439 1.11328,-1.42187 0,-1.02431 0.1671,-2.09984 0.5,-3.22657 0.3329,-1.15234 0.8188,-2.26628 1.45898,-3.34179 0.6402,-1.07552 1.51216,-1.95899 2.61328,-2.65039 1.12674,-0.71702 2.38086,-1.07422 3.76368,-1.07422 2.38151,0 4.2118,0.8316 5.49218,2.49609 1.28038,1.63889 1.92188,4.05882 1.92188,7.25977 0,3.20095 -0.6415,6.49088 -1.92188,9.87109 -1.25477,3.3546 -3.60937,7.6951 -7.0664,13.02148 -0.76824,1.15235 -1.92058,2.89432 -3.45703,5.22461 -1.51086,2.33029 -2.63824,4.07227 -3.38086,5.22461 -0.0512,0.10244 -0.21832,0.37132 -0.5,0.80664 -0.28169,0.40973 -0.52366,0.78039 -0.72852,1.11328 -0.17925,0.3073 -0.35981,0.653 -0.53906,1.03711 -0.17926,0.35852 -0.26758,0.62739 -0.26758,0.80664 0,0.28168 0.0768,0.51216 0.23047,0.69141 0.15365,0.17925 0.33225,0.26953 0.53711,0.26953 h 16.13281 c 0.6658,0 1.74132,0.0499 3.22656,0.15235 l 2.68946,0.15429 c 0.48654,0 0.80533,-0.11523 0.95898,-0.3457 0.17925,-0.23047 0.26953,-0.71636 0.26953,-1.45898 v -10.67969 c 0,-1.63889 -0.25542,-2.45703 -0.76758,-2.45703 -0.28168,0 -0.51215,0.12673 -0.6914,0.38281 -0.10244,0.17925 -0.3214,1.153 -0.6543,2.91992 -0.38411,2.023 -1.08702,3.49609 -2.11133,4.41797 -1.0243,0.89627 -2.57422,1.49739 -4.64844,1.80469 -1.6901,0.25607 -4.41732,0.38476 -8.18164,0.38476 -1.51085,0 -2.26562,-0.20551 -2.26562,-0.61523 0,-0.28169 0.62609,-1.43403 1.88086,-3.45703 0.84505,-1.3316 2.12608,-3.16189 3.8418,-5.49219 1.74131,-2.33029 2.89366,-3.89366 3.45703,-4.6875 0.38411,-0.56337 1.05056,-1.49675 1.99804,-2.80273 0.94748,-1.306 1.68881,-2.3316 2.22657,-3.07422 0.53776,-0.76824 1.19075,-1.79189 1.95898,-3.07227 0.79383,-1.28038 1.39691,-2.40777 1.80664,-3.38086 0.43533,-0.97309 0.80599,-2.07357 1.11328,-3.30273 0.3329,-1.22917 0.5,-2.40647 0.5,-3.53321 v -0.0781 c 0,-3.89236 -0.9987,-6.91342 -2.99609,-9.06445 -1.9974,-2.15105 -4.80143,-3.22657 -8.41211,-3.22657 z m 39.98242,0.65235 c -7.98958,0 -13.39215,0.18055 -16.20898,0.53906 -0.23047,0.0256 -0.39757,0.0755 -0.5,0.15234 -0.10244,0.0512 -0.22918,0.23178 -0.38282,0.53907 -0.12804,0.28168 -0.25672,0.70421 -0.38476,1.26757 -0.46094,1.9974 -1.20422,4.96658 -2.22852,8.91016 -0.9987,3.91796 -1.71505,6.87565 -2.15039,8.87305 -0.20486,0.92187 -0.30664,1.65169 -0.30664,2.18945 0,0.64019 0.35721,0.96094 1.07422,0.96094 5.07031,0 9.00174,0.92188 11.79297,2.76562 3.38021,2.22787 5.07031,5.6849 5.07031,10.3711 0,4.45573 -1.42123,8.18164 -4.26367,11.17773 -2.89366,3.04731 -6.64453,5.00629 -11.25391,5.87695 -1.74131,0.3329 -2.61328,0.75543 -2.61328,1.26758 0,0.53776 0.29579,0.80664 0.88477,0.80664 1.58767,0 3.68685,-0.44748 6.29883,-1.34375 2.63758,-0.89627 5.0191,-2.13889 7.14453,-3.72656 5.65929,-4.19965 8.48828,-9.46203 8.48828,-15.78711 v -0.0762 c 0,-5.17274 -1.70161,-9.16754 -5.10742,-11.98438 -2.97049,-2.45833 -7.20921,-3.81619 -12.71485,-4.07226 -1.22917,-0.0512 -1.84375,-0.44879 -1.84375,-1.19141 0,-0.0768 0.79318,-3.25152 2.38086,-9.52539 0.28168,-1.04991 0.62739,-1.77973 1.03711,-2.18945 0.43533,-0.40972 1.11524,-0.61524 2.03711,-0.61524 5.45443,0 9.33399,-0.0499 11.63867,-0.15234 0.53776,-0.0256 0.94683,-0.064 1.22852,-0.11523 0.2817,-0.0512 0.4488,-0.1031 0.5,-0.1543 0.0768,-0.0768 0.12674,-0.1786 0.15234,-0.30664 0.69141,-1.9974 1.03711,-3.3303 1.03711,-3.9961 0,-0.30728 -0.26888,-0.46093 -0.80664,-0.46093 z m -68.32812,1.23047 c 2.76561,0 4.76301,1.8687 5.99218,5.60742 1.25478,3.7131 1.88282,9.84548 1.88282,18.39844 0,8.55294 -0.62804,14.69879 -1.88282,18.4375 -1.22917,3.7131 -3.22657,5.57031 -5.99218,5.57031 -2.76563,0 -4.76303,-1.85721 -5.99219,-5.57031 -1.22917,-3.71311 -1.84375,-9.83204 -1.84375,-18.35938 v -0.0781 c 0,-8.57856 0.61458,-14.7244 1.84375,-18.4375 1.22916,-3.71311 3.22656,-5.56836 5.99219,-5.56836 z m -71.05664,4.57031 c -2.84245,0 -5.44098,0.5128 -7.79688,1.53711 -2.3559,0.9987 -4.23807,2.29123 -5.64648,3.8789 -1.40842,1.58768 -2.4974,3.29124 -3.26563,5.10938 -0.76822,1.81814 -1.15234,3.61003 -1.15234,5.37695 0,2.89367 0.46094,5.41537 1.38281,7.56641 0.92187,2.15104 2.20291,3.8546 3.8418,5.10937 1.63888,1.25478 3.46918,2.1901 5.49218,2.80469 2.02301,0.58897 4.23938,0.88281 6.64649,0.88281 2.97049,0 5.88976,-0.44748 8.75781,-1.34375 0.6658,-0.20486 1.13824,-0.41036 1.41992,-0.61523 0.30729,-0.20486 0.5128,-0.52561 0.61524,-0.96094 l 1.34375,-5.56836 h -1.49805 c -1.53646,4.30208 -4.81294,6.45313 -9.83203,6.45313 -4.22526,0 -7.41342,-1.29449 -9.56445,-3.88086 -2.12542,-2.61198 -3.16253,-6.19575 -3.11133,-10.75391 0.0512,-4.07161 1.12674,-7.35005 3.22656,-9.83398 2.12543,-2.48394 5.03125,-3.72657 8.71875,-3.72657 3.14974,0 5.46789,0.66646 6.95313,1.99805 1.51086,1.3316 2.29059,2.98329 2.34179,4.95508 h 1.42188 v -5.76172 c 0,-0.74262 -0.57617,-1.3188 -1.72852,-1.72851 -0.97308,-0.3329 -1.74131,-0.57683 -2.30469,-0.73047 -0.53776,-0.17926 -1.38281,-0.3444 -2.53515,-0.49805 -1.12674,-0.17925 -2.36936,-0.26953 -3.72656,-0.26953 z m -110.67579,7.5664 c -2.20225,0 -4.31489,0.41103 -6.33789,1.23047 -1.99739,0.81945 -3.64908,1.8431 -4.95507,3.07227 -1.30599,1.22916 -2.34311,2.5102 -3.11133,3.8418 -0.76824,1.33159 -1.15235,2.54731 -1.15235,3.64843 0,0.6402 0.11524,1.08767 0.34571,1.34375 0.25608,0.25608 0.69206,0.38477 1.30664,0.38477 1.17795,0 2.2016,-0.39757 3.07226,-1.19141 0.74263,-0.74262 1.29384,-1.71441 1.65235,-2.91797 0.66579,-2.43272 1.54926,-4.28993 2.65039,-5.57031 1.10112,-1.30599 2.64908,-1.95898 4.64648,-1.95898 1.17795,0 2.02301,0.39756 2.53516,1.1914 0.51215,0.79384 0.76953,2.20161 0.76953,4.22461 v 4.49414 c 0,0.81945 -0.1671,1.4859 -0.5,1.99805 -0.30729,0.51215 -0.94683,1.12674 -1.91992,1.84375 -0.3073,0.25608 -2.30469,1.70226 -5.99219,4.33984 -3.17534,2.30469 -5.3533,4.1734 -6.53125,5.60743 -1.15235,1.43403 -1.72852,3.07422 -1.72852,4.91796 0,2.20226 0.52626,3.91732 1.57618,5.14649 1.07552,1.20356 2.45834,1.80469 4.14843,1.80469 2.71441,0 5.10743,-0.89497 7.18164,-2.6875 0.48655,-0.38412 1.01281,-0.84506 1.57618,-1.38282 0.56336,-0.56336 0.99739,-0.98589 1.30468,-1.26757 0.3073,-0.28168 0.55122,-0.42383 0.73047,-0.42383 0.28168,0 0.51216,0.37261 0.69141,1.11523 0.12804,0.58897 0.25672,1.06141 0.38476,1.41992 0.12804,0.35851 0.34506,0.79449 0.65235,1.30664 0.30729,0.51216 0.74327,0.89628 1.30664,1.15235 0.56337,0.28168 1.22787,0.42187 1.99609,0.42187 1.07552,0 2.03581,-0.24197 2.88086,-0.72851 0.87066,-0.51216 1.53711,-1.12674 1.99805,-1.84375 0.46093,-0.71702 0.80664,-1.39692 1.03711,-2.03711 0.25607,-0.64019 0.38476,-1.1645 0.38476,-1.57422 0,-0.84505 -0.21897,-1.26758 -0.65429,-1.26758 -0.0768,0 -0.15365,0.025 -0.23047,0.0762 -0.20486,0.10244 -0.48525,0.65365 -0.84375,1.65235 -0.38412,1.20356 -1.22917,1.80468 -2.53516,1.80468 -1.45964,0 -2.18945,-1.0486 -2.18945,-3.14843 v -24.62305 c 0,-1.97178 -0.37262,-3.32769 -1.11524,-4.07031 -0.81944,-0.89627 -2.49609,-1.34571 -5.03125,-1.34571 z m 19.47266,0 c -0.15364,0 -0.52625,0.25738 -1.11523,0.76954 -1.58768,1.28037 -3.28928,2.32899 -5.10743,3.14843 -0.99869,0.43534 -1.49804,0.8329 -1.49804,1.19141 0,0.25607 0.0883,0.42317 0.26758,0.5 0.20486,0.0768 0.64084,0.14021 1.30664,0.19141 1.04991,0.0768 1.70291,0.25543 1.95898,0.53711 0.25608,0.25607 0.38477,0.92252 0.38477,1.99804 v 22.50977 c 0,1.53645 -0.20551,2.56011 -0.61524,3.07226 -0.38411,0.51216 -1.22917,0.8444 -2.53515,0.99805 -0.3329,0.0256 -0.60179,0.14084 -0.80665,0.3457 -0.17925,0.20486 -0.26953,0.41038 -0.26953,0.61524 0,0.61458 0.4744,0.92187 1.42188,0.92187 0.12804,0 0.35851,-0.025 0.6914,-0.0762 0.35851,-0.0512 0.89627,-0.1031 1.61329,-0.1543 0.71701,-0.0512 1.60047,-0.0762 2.65039,-0.0762 1.56206,0 2.84309,0.025 3.84179,0.0762 1.02431,0.0512 1.72722,0.1031 2.11133,0.1543 0.38413,0.0512 0.6031,0.0762 0.6543,0.0762 0.71702,0 1.07422,-0.25542 1.07422,-0.76758 0,-0.25607 -0.0634,-0.43662 -0.19141,-0.53906 -0.15365,-0.12803 -1.05056,-0.32009 -2.68945,-0.57617 -0.92187,-0.15365 -1.52301,-0.40907 -1.80469,-0.76758 -0.28169,-0.38411 -0.42187,-1.05057 -0.42187,-1.99804 v -21.625 c 0,-1.79254 0.84505,-3.44423 2.53515,-4.95508 1.56207,-1.40842 3.44424,-2.11328 5.64649,-2.11328 2.09982,0 3.7246,0.65299 4.87695,1.95898 1.04991,1.12673 1.57617,2.67665 1.57617,4.64844 v 22.00976 c 0,0.9987 -0.19206,1.69011 -0.57617,2.07422 -0.38411,0.35851 -1.11393,0.61393 -2.18945,0.76758 -0.9731,0.15365 -1.46094,0.49935 -1.46094,1.03711 0,0.30729 0.0768,0.52626 0.23047,0.6543 0.17925,0.12803 0.48655,0.1914 0.92187,0.1914 0.0256,0 0.53842,-0.0519 1.53711,-0.15429 1.02431,-0.10244 2.3303,-0.15235 3.91797,-0.15235 1.30599,0 2.40647,0.025 3.30273,0.0762 0.92188,0.0512 1.57487,0.1031 1.95899,0.1543 l 0.53906,0.0762 c 0.74262,0 1.11328,-0.25542 1.11328,-0.76758 0,-0.33289 -0.1786,-0.57682 -0.53711,-0.73046 -0.3329,-0.17926 -0.94748,-0.30794 -1.84375,-0.38477 -0.79384,-0.0768 -1.3585,-0.38412 -1.6914,-0.92187 -0.3329,-0.56338 -0.49805,-1.48525 -0.49805,-2.76563 v -21.81641 c -0.0768,-2.76562 -0.97374,-4.96853 -2.68945,-6.60742 -1.63889,-1.56206 -3.72656,-2.34375 -6.26172,-2.34375 -2.15104,0 -4.41732,0.87196 -6.79883,2.61328 -0.3329,0.23047 -0.72851,0.52431 -1.18945,0.88282 -0.43533,0.3585 -0.78103,0.64083 -1.03711,0.8457 -0.23047,0.17925 -0.48785,0.34441 -0.76953,0.49805 -0.25608,0.12804 -0.45964,0.19336 -0.61328,0.19336 -0.0768,0 -0.1287,-0.0135 -0.1543,-0.0391 -0.0256,-0.0256 -0.064,-0.0775 -0.11524,-0.15429 -0.0256,-0.10243 -0.0506,-0.24263 -0.0762,-0.42188 0,-0.17925 -0.0135,-0.42318 -0.0391,-0.73047 v -3.22656 c 0,-0.61459 -0.1786,-0.92188 -0.53711,-0.92188 z m 37.53125,0 c -2.12543,0 -4.04601,0.60309 -5.76172,1.80665 -1.71571,1.20355 -3.00825,2.68815 -3.8789,4.45507 -0.87066,1.74132 -1.30665,3.5332 -1.30665,5.37696 v 0.0781 c 0,5.17274 1.8188,9.0254 5.45508,11.56055 0.3329,0.25608 0.66515,0.47504 0.99805,0.6543 0.35851,0.15364 0.60243,0.26888 0.73047,0.3457 0.15365,0.0768 0.23047,0.1402 0.23047,0.1914 0,0.0512 -0.11523,0.153 -0.34571,0.30665 -0.20486,0.15364 -0.4987,0.3457 -0.88281,0.57617 -0.3585,0.20486 -0.71766,0.41037 -1.07617,0.61523 -0.3329,0.17925 -0.70356,0.37131 -1.11328,0.57617 -0.38412,0.20486 -0.6415,0.34505 -0.76953,0.42188 -0.20487,0.12803 -0.47375,0.29513 -0.80664,0.5 -0.3329,0.17925 -0.56337,0.31945 -0.69141,0.42187 -0.12804,0.0768 -0.30664,0.19206 -0.53711,0.34571 -0.23047,0.12803 -0.38412,0.23176 -0.46094,0.30859 l -0.30664,0.30664 c -0.12805,0.12804 -0.21833,0.25673 -0.26953,0.38477 -0.0256,0.10243 -0.064,0.22916 -0.11523,0.38281 -0.0256,0.15365 -0.0391,0.32075 -0.0391,0.5 0,0.51215 0.89692,1.61263 2.68946,3.30273 0.17925,0.17926 0.54991,0.55186 1.11328,1.11524 0.58897,0.56336 0.98655,0.95898 1.19141,1.18945 0.20486,0.20486 0.30664,0.3585 0.30664,0.46094 0,0.0768 -0.12674,0.19206 -0.38282,0.3457 -0.25607,0.15365 -0.65364,0.37261 -1.1914,0.6543 -0.51216,0.28168 -0.98654,0.57552 -1.42188,0.88281 -1.99739,1.48525 -2.99609,3.48264 -2.99609,5.99219 0,1.40842 0.25738,2.67599 0.76953,3.80273 0.53776,1.12673 1.20226,2.02366 1.99609,2.68946 0.81945,0.6914 1.74132,1.26757 2.76563,1.72851 1.04991,0.46094 2.03711,0.76824 2.95898,0.92188 0.94749,0.17925 1.86936,0.26757 2.76563,0.26757 4.43011,0 8.20595,-1.1773 11.33008,-3.5332 3.14974,-2.3559 4.72461,-5.21181 4.72461,-8.5664 0,-3.3546 -0.94684,-5.83789 -2.8418,-7.45118 -1.89497,-1.63888 -5.09657,-2.45898 -9.60352,-2.45898 -0.61458,0 -1.47114,0.0269 -2.57226,0.0781 -1.07552,0.0512 -1.89561,0.0762 -2.45899,0.0762 -0.94748,0 -1.8444,-0.21702 -2.68945,-0.65235 -0.81945,-0.43533 -1.22852,-1.11524 -1.22852,-2.03711 0,-0.64019 0.17861,-1.13954 0.53711,-1.49804 0.35851,-0.35851 1.16515,-0.79254 2.41993,-1.30469 1.25477,-0.51215 3.3559,-1.23047 6.30078,-2.15235 2.40711,-0.71701 4.23741,-2.13824 5.49218,-4.26367 1.28038,-2.12543 1.91993,-4.60872 1.91993,-7.45117 0,-1.45963 -0.21702,-3.08637 -0.65235,-4.87891 -0.0768,-0.3329 -0.1786,-0.66515 -0.30664,-0.99804 -0.10244,-0.3329 -0.17927,-0.57682 -0.23047,-0.73047 -0.0512,-0.17925 -0.0781,-0.30599 -0.0781,-0.38281 0,-0.20486 0.44943,-0.3086 1.3457,-0.3086 h 1.65039 c 0.74262,0 1.25542,-0.11523 1.53711,-0.3457 0.28169,-0.25608 0.42188,-0.64019 0.42188,-1.15234 0,-0.9987 -0.94684,-1.49805 -2.8418,-1.49805 h -4.07227 c -1.17795,0 -2.07292,-0.15365 -2.6875,-0.46094 -1.94618,-0.9987 -3.62478,-1.49805 -5.0332,-1.49805 z m -0.38281,1.42188 c 1.84374,0 3.32834,1.03712 4.45508,3.11133 1.12673,2.04861 1.68945,4.89106 1.68945,8.52734 0,3.43142 -0.52431,5.99154 -1.57422,7.68164 -1.02431,1.6901 -2.26693,2.53516 -3.72656,2.53516 h -0.0762 c -1.84376,0 -3.32835,-1.01021 -4.45508,-3.0332 -1.10113,-2.04862 -1.65235,-4.89107 -1.65235,-8.52735 0,-3.45703 0.51281,-6.0306 1.53711,-7.7207 1.04992,-1.71571 2.31749,-2.57422 3.80274,-2.57422 z m -55.73828,15.40234 c 0.3585,0 0.53906,0.34571 0.53906,1.03711 v 8.64258 c 0,1.07552 -0.18056,1.97244 -0.53906,2.68945 -0.3329,0.71702 -0.93403,1.47179 -1.80469,2.26563 -1.97179,1.79253 -3.71376,2.68945 -5.22461,2.68945 -1.15234,0 -2.09917,-0.38412 -2.8418,-1.15234 -0.71701,-0.79384 -1.07617,-1.93273 -1.07617,-3.41797 v -0.0781 c 0,-2.74001 1.3329,-5.33853 3.99609,-7.79687 1.28038,-1.28038 2.90517,-2.58637 4.87696,-3.91797 0.92188,-0.64019 1.61328,-0.96094 2.07422,-0.96094 z m 58.73437,19.20703 c 1.3316,0 2.47049,0.0768 3.41797,0.23047 0.97309,0.15365 1.87001,0.43403 2.68945,0.84375 0.84506,0.40972 1.47114,1.02431 1.88086,1.84375 0.43534,0.81944 0.6543,1.8316 0.6543,3.03516 0,2.91927 -0.92187,5.26237 -2.76563,7.0293 -1.79253,1.71571 -4.14908,2.57422 -7.06835,2.57422 h -0.0762 c -2.56075,0 -4.63498,-0.74328 -6.22265,-2.22852 -1.56207,-1.48525 -2.34375,-3.4961 -2.34375,-6.03125 0,-1.20356 0.29384,-2.47114 0.88281,-3.80273 0.58897,-1.3316 1.42252,-2.29189 2.49805,-2.88086 0.81944,-0.40973 2.97049,-0.61329 6.45312,-0.61329 z"
         inkscape:label="lastname-copyright"
         transform="matrix(0.29762671,0,0,0.29762671,-28.872117,-9.5581767)" /><path
         style="font-size:50.8px;font-family:'Druk Wide Trial';-inkscape-font-specification:'Druk Wide Trial';letter-spacing:2.11667px;stroke-width:0.265"
         d="m 26.17597,143.40226 h 17.1196 v 25.5016 h 26.212799 v 12.2936 H 26.17597 Z m 46.363452,17.78 v -17.78 h 17.221199 v 16.1544 q 0,1.8288 0.4572,3.3528 0.4572,1.4732 1.524,2.9464 1.1176,1.4224 3.302,2.2352 2.2352,0.8128 5.333999,0.8128 h 0.0508 q 3.048,0 5.2324,-0.8128 2.1844,-0.8128 3.302,-2.2352 1.1176,-1.4224 1.5748,-2.9464 0.508,-1.5748 0.508,-3.3528 v -16.1544 h 17.2212 v 17.78 q 0,1.778 -0.254,3.5052 -0.2032,1.6764 -0.9652,3.81 -0.7112,2.1336 -1.8796,3.9624 -1.1684,1.778 -3.2512,3.556 -2.032,1.778 -4.7752,3.048 -2.6924,1.2192 -6.7056,1.9812 -3.9624,0.762 -8.8392,0.762 h -2.336799 q -4.9276,0 -8.9916,-0.762 -4.0132,-0.762 -6.7564,-1.9812 -2.6924,-1.27 -4.7752,-3.048 -2.032,-1.778 -3.2004,-3.556 -1.117599,-1.8288 -1.828799,-3.9624 -0.7112,-2.1336 -0.9652,-3.81 -0.2032,-1.6764 -0.2032,-3.5052 z m 78.113468,20.0152 h -20.3708 l 15.7988,-19.7104 -15.0368,-18.0848 h 21.1836 l 8.5344,11.176 8.5852,-11.176 h 19.7612 l -14.3764,18.034 15.5956,19.7612 h -20.7772 l -9.4996,-11.8364 z"
         id="text70"
         aria-label="LUX"
         inkscape:export-filename="..\..\..\GitHub\shrimple-website\dist\lux4.svg"
         inkscape:export-xdpi="96"
         inkscape:export-ydpi="96"
         inkscape:label="lux4" /></g><g
       id="text1"
       style="font-weight:300;font-stretch:condensed;font-size:78.6667px;font-family:'';-inkscape-font-specification:'';fill:#b77847"
       aria-label="Zhang ©2025" /></g></svg>
