<?xml version="1.0" encoding="UTF-8" standalone="no"?>
<!-- Created with Inkscape (http://www.inkscape.org/) -->

<svg
   width="187.26859mm"
   height="83.714653mm"
   viewBox="0 0 187.26859 83.714653"
   version="1.1"
   id="svg1"
   xmlns:xlink="http://www.w3.org/1999/xlink"
   xmlns="http://www.w3.org/2000/svg"
   xmlns:svg="http://www.w3.org/2000/svg">
  <defs
     id="defs1" />
  <g
     id="layer1"
     transform="translate(-15.175811,-115.54596)">
    <g
       id="g14"
       transform="translate(-19.797365,0.88035713)"
       style="display:none">
      <text
         xml:space="preserve"
         id="text10"
         style="font-style:normal;font-variant:normal;font-weight:normal;font-stretch:normal;font-size:4.23333px;font-family:'Courier New';-inkscape-font-specification:'Courier New';letter-spacing:0px;word-spacing:0px;white-space:pre;fill:#333333;fill-opacity:1;fill-rule:nonzero;stroke:none;stroke-width:4.04032;stroke-miterlimit:3.4;stroke-dasharray:none;stroke-opacity:1"
         transform="translate(0.87007736,-2.5881336)"><textPath
           xlink:href="#path13"
           startOffset="50%"
           id="textPath13"
           style="font-style:normal;font-variant:normal;font-weight:normal;font-stretch:normal;font-size:4.23333px;font-family:'Cascadia Code';-inkscape-font-specification:'Cascadia Code';text-align:center;text-anchor:middle;fill:#333333;fill-opacity:1;stroke:none;stroke-width:4.04032;stroke-dasharray:none">Third-Person Scrolling Shooter • Finally Finish Something Jam 2020</textPath></text>
      <path
         id="path13"
         style="display:none;fill:none;fill-opacity:1;stroke:#000000;stroke-width:2.22303;stroke-miterlimit:3.4;stroke-opacity:0.226087"
         d="M 127.78286,-220.24202 A 189.16345,209.06855 0 0 0 -60.967873,-10.71828 189.16345,209.06855 0 0 0 128.60747,197.89408 189.16345,209.06855 0 0 0 317.35816,-11.629658 189.16345,209.06855 0 0 0 127.78286,-220.24202 Z" />
    </g>
    <g
       id="g54"
       transform="translate(-19.797365,0.88035713)"
       style="display:inline">
      <path
         id="path40"
         style="fill:none;stroke:#333333;stroke-width:0.972364;stroke-miterlimit:3.4"
         d="m 221.75558,156.52294 a 93.148104,41.371147 0 0 1 -93.14811,41.37114 93.148104,41.371147 0 0 1 -93.148111,-41.37114 93.148104,41.371147 0 0 1 93.148111,-41.37115 93.148104,41.371147 0 0 1 93.14811,41.37115 z" />
      <g
         data-name="Layer 8"
         id="g42"
         transform="matrix(0.86140962,0,0,0.86140962,62.66172,134.64006)"
         style="fill:none;fill-rule:nonzero;stroke:#333333;stroke-width:1.15775;stroke-dasharray:none;stroke-opacity:1">
        <path
           d="M 41.23633,12.53418 A 10.94322,10.94322 0 0 0 35.00684,4.62793 C 29.43774,1.84723 22.481,2.84229 15.90216,7.35162 A 10.99644,10.99644 0 0 0 2.90674,8.06641 0.9996,0.9996 0 0 0 3.57861,9.80664 c 0.97437,0 3.81281,2.42749 6.05774,4.85565 -3.69409,7.785 -1.77087,17.10437 -0.89074,20.40509 a 6.12172,6.12172 0 0 0 -3.752,1.9502 C 2.61961,39.64941 3.02144,43.83105 3.04,44.00781 a 1,1 0 0 0 0.99463,0.89746 h 6.01709 a 1.00153,1.00153 0 0 0 0.814,-0.41894 c 0.41944,-0.58789 1.05762,-1.2832 1.72657,-1.2832 l 0.02734,10e-4 c 0.75683,0.02149 1.4917,0.919 1.687,1.22754 a 1.00083,1.00083 0 0 0 0.8501,0.47363 h 5.835 a 0.99973,0.99973 0 0 0 1,-1 c 0,-6.34472 -3.94238,-8.21191 -5.75586,-8.73535 C 16.20068,22.54 24.00488,19.85645 31.6875,18.915 a 38.811,38.811 0 0 1 8.78613,-0.03027 c 2.11426,0.18652 3.3877,0.30078 4.25293,-0.49122 a 2.3616,2.3616 0 0 0 0.69434,-1.84863 c 0,-2.68062 -2.38574,-3.73238 -4.18457,-4.0107 z M 5.71777,8.56836 a 8.75331,8.75331 0 0 1 8.467,0.10876 17.91644,17.91644 0 0 0 -3.53943,4.13617 A 26.64759,26.64759 0 0 0 5.71777,8.56836 Z M 43.377,16.917 a 8.33361,8.33361 0 0 1 -2.72656,-0.02441 40.90813,40.90813 0 0 0 -9.20508,0.03808 c -8.22119,1.00586 -17.605,4.083 -17.19677,19.07032 a 0.9994,0.9994 0 0 0 0.90478,0.96777 c 0.18652,0.01855 4.34326,0.48047 4.79785,5.93652 H 15.666 a 4.19776,4.19776 0 0 0 -2.97559,-1.70019 3.9347,3.9347 0 0 0 -3.1333,1.70019 H 5.00732 a 7.23661,7.23661 0 0 1 1.47657,-4.55371 4.527,4.527 0 0 1 3.56787,-1.37793 0.99968,0.99968 0 0 0 0.9458,-1.32422 C 10.93556,35.46778 4.90869,17.39742 16.91162,9.08106 25.43262,3.17773 31.7793,5.252 34.11328,6.418 c 3.10254,1.5498 5.09766,4.26074 5.20606,7.07422 a 1.00287,1.00287 0 0 0 0.97851,0.96191 c 0.12793,0.0029 3.12305,0.0957 3.12305,2.09082 A 1.10086,1.10086 0 0 1 43.377,16.917 Z"
           id="path41"
           style="fill:none;fill-opacity:1;fill-rule:nonzero;stroke:#333333;stroke-width:1.15775;stroke-dasharray:none;stroke-opacity:1" />
        <path
           d="m 32.739494,9.1722717 a 2.43066,2.43066 0 1 0 2.43067,2.4306603 2.434,2.434 0 0 0 -2.43067,-2.4306603 z m 0,2.8613203 a 0.43066,0.43066 0 1 1 0.43067,-0.43066 0.43136,0.43136 0 0 1 -0.43067,0.43066 z"
           id="path42"
           style="fill:none;fill-rule:nonzero;stroke:#333333;stroke-width:1.15775;stroke-dasharray:none;stroke-opacity:1" />
      </g>
      <g
         data-name="Layer 10"
         id="g50"
         transform="matrix(0.95481917,0,0,0.95481917,104.67829,132.39457)"
         style="fill:none;stroke:#333333;stroke-width:0.999947;stroke-dasharray:none;stroke-opacity:1">
        <path
           d="M 40.21582,11.79834 A 8.03264,8.03264 0 0 0 32.50049,5.93555 h -1.3457 a 8.02753,8.02753 0 0 0 -5.58838,2.273 h -3.13282 a 8.02753,8.02753 0 0 0 -5.58838,-2.273 h -1.3457 A 8.03264,8.03264 0 0 0 7.78418,11.79834 L 2.43994,31.01318 A 9.38283,9.38283 0 0 0 6.38965,41.44189 3.87836,3.87836 0 0 0 11.044,41.103 l 8.21923,-7.22071 h 9.47364 l 8.21923,7.22022 a 3.87825,3.87825 0 0 0 4.65479,0.33935 9.38327,9.38327 0 0 0 3.94922,-10.42871 z m 3.58118,22.92053 -4.75061,-4.75061 3.24469,-3.24469 1.34222,4.82575 a 7.41482,7.41482 0 0 1 0.1637,3.16955 z m -39.4303,-3.16955 1.42084,-5.10846 3.5274,3.5274 -5.07117,5.07117 A 7.42958,7.42958 0 0 1 4.3667,31.54932 Z m 36.15576,8.21484 A 1.87535,1.87535 0 0 1 38.27637,39.6001 L 29.77393,32.13086 A 1.00173,1.00173 0 0 0 29.11377,31.88232 H 18.88623 a 1.00173,1.00173 0 0 0 -0.66016,0.24854 l -8.50244,7.46973 a 1.87248,1.87248 0 0 1 -2.2456,0.16357 7.41314,7.41314 0 0 1 -2.46881,-2.662 L 11.436,30.67529 a 0.99964,0.99964 0 0 0 0,-1.41406 L 6.403,24.22815 9.711,12.33447 a 6.02628,6.02628 0 0 1 5.78857,-4.39892 h 1.3457 a 6.02189,6.02189 0 0 1 4.42872,1.94873 1.00072,1.00072 0 0 0 0.7373,0.32422 h 3.97754 a 1.00072,1.00072 0 0 0 0.7373,-0.32422 6.02189,6.02189 0 0 1 4.42872,-1.94873 h 1.3457 a 6.02628,6.02628 0 0 1 5.78857,4.39892 l 3.3866,12.17639 -4.75037,4.75037 a 0.99964,0.99964 0 0 0 0,1.41406 l 6.18128,6.18128 a 7.39373,7.39373 0 0 1 -2.58417,2.90759 z"
           id="path43"
           style="fill:none;stroke:#333333;stroke-width:0.999947;stroke-dasharray:none;stroke-opacity:1" />
        <path
           d="m 20.9458,20.38574 a 1.00005,1.00005 0 0 0 -1,-1 H 17.55908 V 16.999 a 1,1 0 1 0 -2,0 v 2.38672 h -2.38672 a 1,1 0 1 0 0,2 h 2.38672 v 2.38672 a 1,1 0 1 0 2,0 v -2.3867 h 2.38672 a 1,1 0 0 0 1,-1 z"
           id="path44"
           style="fill:none;stroke:#333333;stroke-width:0.999947;stroke-dasharray:none;stroke-opacity:1" />
        <path
           d="m 30.29,16.29 a 1.01394,1.01394 0 0 0 0,1.41992 A 1.03391,1.03391 0 0 0 31,18 1.00929,1.00929 0 0 0 31.69971,17.71 0.98048,0.98048 0 0 0 31.82959,17.54984 0.89256,0.89256 0 0 0 31.91992,17.37992 0.617,0.617 0 0 0 31.97998,17.18998 1.25325,1.25325 0 0 0 32,17 1.01684,1.01684 0 0 0 31.69971,16.29 1.03361,1.03361 0 0 0 30.29,16.29 Z"
           id="path45"
           style="fill:none;stroke:#333333;stroke-width:0.999947;stroke-dasharray:none;stroke-opacity:1" />
        <path
           d="m 31.69971,23.06982 a 0.87471,0.87471 0 0 0 -0.31983,-0.22021 1.02944,1.02944 0 0 0 -0.77,0 0.87467,0.87467 0 0 0 -0.31982,0.22021 1.20948,1.20948 0 0 0 -0.22022,0.31983 1.06968,1.06968 0 0 0 0,0.76025 A 1.12127,1.12127 0 0 0 30.29,24.48 1.21149,1.21149 0 0 0 30.60982,24.69973 1.06564,1.06564 0 0 0 31,24.77 a 0.98076,0.98076 0 0 0 0.37988,-0.07031 1.21154,1.21154 0 0 0 0.31983,-0.21973 0.83983,0.83983 0 0 0 0.22021,-0.33008 0.94223,0.94223 0 0 0 0,-0.76025 0.87879,0.87879 0 0 0 -0.22021,-0.31981 z"
           id="path46"
           style="fill:none;stroke:#333333;stroke-width:0.999947;stroke-dasharray:none;stroke-opacity:1" />
        <path
           d="m 26.8999,21.08984 a 1.0163,1.0163 0 0 0 0.71,0.29981 1.3311,1.3311 0 0 0 0.2002,-0.02 c 0.05957,-0.02 0.11963,-0.04 0.17969,-0.05957 0.06005,-0.03027 0.12011,-0.06006 0.18017,-0.09033 a 1.77484,1.77484 0 0 0 0.1499,-0.12989 0.98864,0.98864 0 0 0 0.21,-0.31982 1.00011,1.00011 0 0 0 0.08007,-0.38037 A 1.0489,1.0489 0 0 0 28.52979,20 a 0.99078,0.99078 0 0 0 -0.21,-0.32031 1.04769,1.04769 0 0 0 -1.41992,0 0.99092,0.99092 0 0 0 -0.21,0.32031 1.03926,1.03926 0 0 0 -0.08008,0.38965 1.03875,1.03875 0 0 0 0.29,0.70019 z"
           id="path47"
           style="fill:none;stroke:#333333;stroke-width:0.999947;stroke-dasharray:none;stroke-opacity:1" />
        <path
           d="m 35.08984,19.67969 a 1.03524,1.03524 0 0 0 -1.41015,0 A 0.87323,0.87323 0 0 0 33.46,20 1.03926,1.03926 0 0 0 33.37992,20.38965 0.991,0.991 0 0 0 33.46,20.77 a 0.87147,0.87147 0 0 0 0.21973,0.31982 0.98231,0.98231 0 0 0 0.71,0.29981 1.18878,1.18878 0 0 0 0.18994,-0.02 c 0.06006,-0.02 0.13037,-0.04 0.19043,-0.05957 0.05957,-0.03027 0.11963,-0.06006 0.16992,-0.09033 a 0.95411,0.95411 0 0 0 0.1499,-0.12989 1.02509,1.02509 0 0 0 0.22022,-0.31982 0.99024,0.99024 0 0 0 0.06982,-0.38037 A 1.03891,1.03891 0 0 0 35.31006,20 1.02723,1.02723 0 0 0 35.08984,19.67969 Z"
           id="path48"
           style="fill:none;stroke:#333333;stroke-width:0.999947;stroke-dasharray:none;stroke-opacity:1" />
        <path
           d="m 21.33447,27.26758 h -1.167 a 1,1 0 0 0 0,2 h 1.167 a 1,1 0 0 0 0,-2 z"
           id="path49"
           style="fill:none;stroke:#333333;stroke-width:0.999947;stroke-dasharray:none;stroke-opacity:1" />
        <path
           d="m 27.83252,27.26758 h -1.167 a 1,1 0 0 0 0,2 h 1.167 a 1,1 0 0 0 0,-2 z"
           id="path50"
           style="fill:none;stroke:#333333;stroke-width:0.999947;stroke-dasharray:none;stroke-opacity:1" />
      </g>
      <g
         data-name="Layer 25"
         id="g53"
         transform="matrix(-0.84601784,0,0,0.90489846,193.18333,134.81067)"
         style="fill:none;stroke:#333333;stroke-opacity:1">
        <path
           d="M 46.11963,6.09082 H 19.76709 a 8.42628,8.42628 0 0 0 -8.39746,7.92133 c -0.72968,0.306 -5.186,2.4439 -7.40527,9.75445 -2.60936,8.5957 -3.0962,13.8291 -1.4878,15.99903 a 2.92444,2.92444 0 0 0 2.44483,1.19726 16.26242,16.26242 0 0 1 3.042,0.4375 18.88212,18.88212 0 0 0 3.71631,0.49707 c 2.416,0 4.77783,-0.94336 5.99267,-4.81543 a 33.16134,33.16134 0 0 0 1.367,-7.84119 18.14759,18.14759 0 0 0 4.61,0.69666 6.11534,6.11534 0 0 0 4.1875,-1.293 c 1.18329,-1.08417 1.54889,-2.73993 1.11011,-4.91308 h 1.95777 a 7.76138,7.76138 0 0 0 7.72778,-7.18262 h 7.48706 a 0.99974,0.99974 0 0 0 1,-1 V 7.0908 A 0.99974,0.99974 0 0 0 46.11963,6.09082 Z M 13.34424,14.51367 A 6.43274,6.43274 0 0 1 18.76709,8.169 v 13.48432 a 6.43274,6.43274 0 0 1 -5.42285,-6.34473 z m -4.981,24.92676 A 17.90042,17.90042 0 0 0 4.92135,38.96289 0.9369,0.9369 0 0 1 4.08297,38.57422 4.89273,4.89273 0 0 1 3.55178,35.65491 c 0.42609,-0.10932 1.617,-0.234 4.48285,0.45154 a 32.86568,32.86568 0 0 0 7.4209,1.06835 l 0.06329,-7.3e-4 c -1.3077,3.26959 -3.61635,2.98841 -7.15554,2.26636 z m 7.76886,-4.26324 a 0.91953,0.91953 0 0 0 -0.17413,-0.017 26.43885,26.43885 0 0 1 -7.45752,-0.999 15.2941,15.2941 0 0 0 -4.78516,-0.55938 57.907,57.907 0 0 1 2.16309,-9.25507 c 1.546,-5.09277 4.21094,-7.28912 5.52167,-8.0979 a 8.43552,8.43552 0 0 0 5.5595,6.99133 37.6168,37.6168 0 0 1 -0.82741,11.93702 z m 10.35419,-8.00727 c -1.49268,1.36719 -5.40967,0.58624 -7.37219,0.0097 0.016,-1.47138 -0.04548,-2.67871 -0.10724,-3.4867 0.25079,0.02259 0.5036,0.03852 0.76019,0.03852 h 7.13367 c 0.408,1.64685 0.27328,2.80694 -0.41439,3.43847 z M 36.66162,15.97461 a 5.76307,5.76307 0 0 1 -5.75683,5.75684 H 20.76709 V 8.09082 h 15.89453 z m 8.458,-1.42578 h -6.458 v -6.458 h 6.458 z"
           id="path51"
           style="fill:none;stroke:#333333;stroke-opacity:1" />
        <path
           d="m 32.58057,11.77637 h -7.73243 a 1,1 0 0 0 0,2 h 7.73243 a 1,1 0 0 0 0,-2 z"
           id="path52"
           style="fill:none;stroke:#333333;stroke-opacity:1" />
        <path
           d="m 32.58057,16.0459 h -7.73243 a 1,1 0 0 0 0,2 h 7.73243 a 1,1 0 0 0 0,-2 z"
           id="path53"
           style="fill:none;stroke:#333333;stroke-opacity:1" />
      </g>
      <path
         style="font-size:4.23333px;font-family:'Cascadia Code';-inkscape-font-specification:'Cascadia Code';text-align:center;letter-spacing:0px;word-spacing:0px;text-anchor:middle;white-space:pre;fill:#333333;stroke-width:4.04032;stroke-miterlimit:3.4"
         d="m 50.646668,179.5188 1.302826,-2.63024 0.370457,0.1835 -1.302827,2.63024 z m 0.350547,-2.66365 0.174322,-0.35193 1.926371,0.95418 -0.174322,0.35193 z m 2.475203,4.03734 0.615439,-1.28665 q 0.09009,-0.18834 0.04501,-0.33363 -0.04418,-0.14715 -0.212004,-0.22743 -0.466179,-0.22298 -0.737328,0.34389 l 0.126995,-0.5625 0.152907,0.0731 q 0.11222,-0.1915 0.287266,-0.22692 0.175938,-0.0373 0.423945,0.0813 0.313272,0.14985 0.393848,0.4221 0.08058,0.27226 -0.08532,0.6191 l -0.615438,1.28665 z m -1.215794,-0.58154 1.33791,-2.79707 0.395319,0.18909 -1.337909,2.79707 z m 2.983238,1.40916 0.866151,-1.87684 0.397888,0.18363 -0.866151,1.87683 z m -0.758241,-0.34993 0.150711,-0.32657 0.795777,0.36725 -0.150711,0.32657 z m 1.118592,0.51623 0.150711,-0.32657 0.649384,0.29969 -0.15071,0.32657 z m -0.238572,-2.12713 0.15071,-0.32657 1.043519,0.48158 -0.15071,0.32657 z m 1.127661,-0.25817 q -0.114487,-0.0528 -0.159823,-0.17165 -0.04259,-0.11983 0.01024,-0.23432 0.0537,-0.11636 0.171649,-0.15982 0.119826,-0.0426 0.234312,0.0102 0.116364,0.0537 0.159823,0.17165 0.04346,0.11795 -0.01024,0.23431 -0.05284,0.11449 -0.171649,0.15983 -0.117949,0.0435 -0.234312,-0.0102 z m 1.324284,2.35215 0.161824,-0.67912 0.154868,0.0689 q 0.27931,-0.53635 0.796794,-0.30616 0.309735,0.13778 0.370523,0.37748 0.06079,0.2397 -0.115637,0.63631 l -0.396612,-0.17643 q 0.09745,-0.21908 0.0742,-0.3448 -0.02137,-0.12488 -0.166792,-0.18957 -0.254965,-0.11342 -0.478956,0.0494 -0.221264,0.16175 -0.400209,0.56403 z m -1.229199,0.48484 0.14618,-0.32862 1.33715,0.5948 -0.146181,0.32862 z m 0.445716,0.19827 0.890525,-2.00195 0.324844,0.1445 -0.17985,0.60775 -0.635129,1.4278 z m 0.374173,-1.83799 0.146181,-0.32862 0.668575,0.2974 -0.108408,0.34542 z m 2.265343,3.04109 q -0.395221,-0.16928 -0.488934,-0.51749 -0.09181,-0.34739 0.124672,-0.85282 0.224622,-0.52442 0.543499,-0.70716 0.320777,-0.18191 0.715997,-0.0126 0.226112,0.0968 0.321143,0.26348 0.09693,0.16744 0.04025,0.36803 l 0.155808,0.0667 -0.363588,0.52338 q 0.133471,-0.31162 0.07914,-0.52603 -0.05243,-0.21359 -0.289941,-0.31532 -0.243213,-0.10418 -0.446748,0.0245 -0.203536,0.12869 -0.35654,0.48591 -0.144865,0.33822 -0.09352,0.56484 0.05135,0.22662 0.294558,0.3308 0.237512,0.10173 0.428296,-0.008 0.192683,-0.10861 0.326154,-0.42023 l -0.108975,0.63243 -0.174809,-0.0749 q -0.100386,0.18188 -0.288469,0.22724 -0.186183,0.0462 -0.417994,-0.0531 z m 0.621869,0.24388 0.127479,-0.41313 1.059632,-2.47392 0.402821,0.17253 -1.220775,2.85015 z m 1.364815,-0.82609 0.146447,-0.35549 1.911229,0.78736 -0.146447,0.35548 z m 2.597602,1.45321 0.144518,-0.36518 0.46513,0.18407 q 0.315211,0.12474 0.538272,0.0329 0.223821,-0.0937 0.343239,-0.39547 0.104966,-0.26524 -0.0025,-0.46559 -0.107446,-0.20036 -0.422657,-0.3251 l -0.457441,-0.18103 0.144519,-0.36519 0.457441,0.18103 q 0.51318,0.20309 0.685982,0.53602 0.174725,0.33368 -0.0017,0.77959 -0.190917,0.48243 -0.555038,0.62733 -0.361437,0.14373 -0.874617,-0.0594 z m -0.672951,0.71182 1.080088,-2.72927 0.384404,0.15213 -1.080088,2.72927 z m 3.340928,1.34479 q -0.523698,-0.19883 -0.705521,-0.58182 -0.179156,-0.3842 0.01674,-0.90016 0.190757,-0.50245 0.537965,-0.68901 0.347209,-0.18657 0.787811,-0.0193 0.415481,0.15774 0.546201,0.49481 0.132653,0.33779 -0.0493,0.81704 -0.05356,0.14107 -0.111376,0.25842 l -1.437755,-0.54586 0.118856,-0.31306 1.078317,0.40939 q 0.104916,-0.27634 0.02927,-0.4731 -0.07491,-0.19869 -0.30681,-0.28673 -0.260883,-0.099 -0.473317,0.0237 -0.210501,0.1235 -0.33376,0.44815 -0.134997,0.35558 -0.0083,0.61593 0.128611,0.26109 0.493847,0.39975 0.127543,0.0484 0.256357,0.0819 0.129547,0.0315 0.266628,0.0548 l -0.08622,0.37851 q -0.194859,-0.0342 -0.34926,-0.0817 -0.1544,-0.0476 -0.270349,-0.0916 z m 2.325173,-0.18592 0.114127,-0.68873 0.15929,0.0579 q 0.241272,-0.55451 0.773533,-0.36092 0.31858,0.11587 0.395916,0.35075 0.07734,0.23489 -0.07103,0.64283 l -0.407938,-0.14837 q 0.08196,-0.22534 0.05,-0.34914 -0.03001,-0.12309 -0.179592,-0.17749 -0.262245,-0.0954 -0.474354,0.0826 -0.209459,0.17677 -0.359949,0.59053 z m -1.192442,0.56929 0.122935,-0.33801 1.375333,0.50022 -0.122935,0.33801 z m 0.458444,0.16674 0.748916,-2.05912 0.33412,0.12153 -0.137081,0.6188 -0.534132,1.46857 z m 0.245239,-1.85959 0.122935,-0.338 0.687667,0.2501 -0.08408,0.35214 z m 2.469506,2.87495 q -0.234276,-0.0815 -0.397419,-0.15357 -0.161191,-0.0714 -0.288938,-0.15085 l 0.177253,-0.35854 q 0.194125,0.10255 0.344876,0.1725 0.152702,0.0706 0.293268,0.11953 0.31432,0.10934 0.475939,0.0977 0.164251,-0.0129 0.211112,-0.1476 0.0326,-0.0937 -0.0025,-0.15627 -0.03251,-0.0638 -0.127151,-0.12521 l -0.434252,-0.28676 q -0.279345,-0.18472 -0.383745,-0.35016 -0.102447,-0.16477 -0.02095,-0.39904 0.118173,-0.3397 0.430803,-0.40165 0.314582,-0.0613 0.894414,0.14043 0.150327,0.0523 0.275783,0.10688 0.128087,0.0533 0.257277,0.12233 l -0.167915,0.34428 q -0.152703,-0.0706 -0.271708,-0.11859 -0.119005,-0.048 -0.23419,-0.088 -0.347509,-0.12089 -0.524747,-0.11471 -0.176558,0.004 -0.22342,0.13895 -0.03124,0.0898 0.01892,0.15321 0.05084,0.0615 0.172053,0.14083 l 0.350051,0.22683 q 0.298867,0.19151 0.403691,0.37461 0.106776,0.18378 0.01984,0.43367 -0.116135,0.33384 -0.413147,0.40123 -0.296332,0.0654 -0.835166,-0.12202 z m 2.509098,0.85438 q -0.431568,-0.14335 -0.577062,-0.50533 -0.145495,-0.36197 0.02522,-0.87593 0.171369,-0.51592 0.50387,-0.71694 0.333152,-0.20299 0.76472,-0.0596 0.433529,0.144 0.577062,0.50532 0.146146,0.36002 -0.02522,0.87593 -0.170716,0.51396 -0.503869,0.71695 -0.331191,0.20364 -0.76472,0.0596 z m 0.123802,-0.37272 q 0.229515,0.0762 0.41435,-0.0671 0.186796,-0.1427 0.29887,-0.4801 0.112725,-0.33937 0.04778,-0.56351 -0.06234,-0.22545 -0.291851,-0.30168 -0.229516,-0.0762 -0.416312,0.0665 -0.184183,0.14138 -0.296908,0.48075 -0.112074,0.33741 -0.04974,0.56285 0.0643,0.2261 0.293813,0.30234 z m 2.682474,1.23607 0.430443,-1.35977 q 0.05989,-0.18918 -0.0062,-0.32285 -0.06609,-0.13367 -0.243455,-0.18981 -0.492669,-0.15596 -0.676075,0.42342 l 0.0475,-0.5747 0.161596,0.0512 q 0.08449,-0.20524 0.252901,-0.26467 0.16904,-0.0614 0.431139,0.0216 0.331073,0.10481 0.448745,0.36321 0.117671,0.2584 0.0016,0.62494 l -0.430442,1.35977 z m -1.284879,-0.40674 0.66126,-2.08891 0.378369,0.11977 -0.100325,0.45391 -0.521522,1.64748 z m 5.492598,1.71143 q -0.240494,-0.0687 -0.43982,-0.16863 -0.197906,-0.0974 -0.354644,-0.22599 l 0.166362,-0.38672 q 0.191947,0.15586 0.380484,0.26346 0.191092,0.10618 0.383885,0.16126 0.278258,0.0795 0.441231,0.0207 0.162974,-0.0588 0.219749,-0.25754 0.07211,-0.25242 -0.15278,-0.44349 l -0.42535,-0.36228 q -0.250724,-0.2135 -0.352953,-0.44263 -0.10024,-0.22856 -0.02189,-0.50284 0.105602,-0.36968 0.386119,-0.50883 0.280517,-0.13914 0.687966,-0.0228 0.28422,0.0812 0.479006,0.22712 0.194785,0.14593 0.34358,0.39266 l -0.358879,0.20274 q -0.134027,-0.19306 -0.2689,-0.30038 -0.132319,-0.10874 -0.297286,-0.15586 -0.204718,-0.0585 -0.346396,0.009 -0.139123,0.0656 -0.194195,0.25838 -0.03918,0.13715 0.0094,0.24561 0.04913,0.10647 0.172927,0.21492 l 0.357772,0.31287 q 0.27202,0.23679 0.382198,0.46819 0.110179,0.2314 0.02729,0.52158 -0.109576,0.3836 -0.41508,0.50485 -0.302949,0.11984 -0.809775,-0.0249 z m 2.691555,0.7474 q -0.54076,-0.14619 -0.75948,-0.50938 -0.216185,-0.36464 -0.07215,-0.89742 0.140258,-0.51881 0.495303,-0.73117 0.35704,-0.21181 0.873854,-0.0721 0.309291,0.0836 0.497499,0.25869 0.190743,0.17361 0.227885,0.40849 l -0.391606,0.1575 q -0.05041,-0.16994 -0.168515,-0.28752 -0.118102,-0.11758 -0.283722,-0.16235 -0.299313,-0.0809 -0.514023,0.0559 -0.214171,0.13481 -0.30426,0.46805 -0.09764,0.36117 0.04413,0.60506 0.144303,0.24243 0.505475,0.34007 0.147661,0.0399 0.299098,0.0659 0.151438,0.026 0.297591,0.0398 l -0.05245,0.3841 q -0.173335,-0.008 -0.352169,-0.0438 -0.176838,-0.035 -0.342458,-0.0797 z m 2.294937,-0.4148 0.04547,-0.69664 0.164238,0.0419 q 0.18526,-0.57565 0.734055,-0.43564 0.328476,0.0838 0.428658,0.30989 0.100182,0.22608 -0.0071,0.64669 l -0.420609,-0.10731 q 0.05927,-0.23233 0.01523,-0.35237 -0.04204,-0.11952 -0.196262,-0.15886 -0.270392,-0.069 -0.46386,0.12911 -0.190955,0.19661 -0.299795,0.62323 z m -1.130309,0.6844 0.08891,-0.3485 1.418054,0.36178 -0.08891,0.3485 z m 0.472685,0.1206 0.541644,-2.12308 0.344499,0.0879 -0.07522,0.62932 -0.386305,1.51419 z m 0.06016,-1.87473 0.08891,-0.3485 0.709027,0.18089 -0.04885,0.35872 z m 2.906767,2.65608 q -0.442197,-0.10612 -0.617955,-0.45441 -0.175758,-0.34829 -0.04938,-0.8749 0.126861,-0.52863 0.441057,-0.75721 0.314678,-0.23059 0.756875,-0.12447 0.444207,0.1066 0.617956,0.45441 0.176241,0.34627 0.04938,0.8749 -0.126379,0.52661 -0.441057,0.7572 -0.312669,0.23108 -0.756876,0.12448 z m 0.09165,-0.3819 q 0.235168,0.0564 0.40714,-0.10212 0.173981,-0.15806 0.256947,-0.50378 0.08345,-0.34773 -3.31e-4,-0.56553 -0.08129,-0.21933 -0.316456,-0.27576 -0.235169,-0.0564 -0.40915,0.10163 -0.171488,0.15654 -0.254937,0.50427 -0.08297,0.34571 -0.0017,0.56504 0.0833,0.21981 0.318466,0.27625 z m 2.643821,1.01534 q -0.371068,-0.0835 -0.491077,-0.32233 -0.120008,-0.23886 -0.02022,-0.68253 l 0.498948,-2.21834 0.427535,0.0962 -0.494412,2.19818 q -0.0381,0.1694 -0.02988,0.28354 0.0082,0.11414 0.08965,0.18542 0.08344,0.0717 0.266962,0.11302 0.167384,0.0376 0.444771,0.0195 l -0.03597,0.38599 q -0.17333,0.008 -0.329116,-0.006 -0.15377,-0.0134 -0.327204,-0.0524 z m -0.720475,-3.01382 0.07892,-0.3509 0.665502,0.14969 -0.07892,0.3509 z m 3.145771,3.53632 q -0.372225,-0.0781 -0.495641,-0.31526 -0.123415,-0.23712 -0.02999,-0.68217 l 0.467141,-2.22526 0.428868,0.09 -0.462894,2.20503 q -0.03567,0.16993 -0.02581,0.28394 0.0099,0.11401 0.0923,0.18412 0.08446,0.0705 0.268551,0.10918 0.167906,0.0353 0.445006,0.0132 l -0.03044,0.38646 q -0.173203,0.0101 -0.329172,-0.002 -0.153946,-0.0112 -0.32792,-0.0477 z m -0.763544,-3.00319 0.07389,-0.35199 0.667577,0.14014 -0.07389,0.35199 z m 2.810451,3.37357 0.395626,-2.02884 0.430114,0.0839 -0.395626,2.02884 z m -0.819652,-0.15983 0.06884,-0.35302 0.860228,0.16775 -0.06884,0.35302 z m 1.209189,0.2358 0.06884,-0.35302 0.701979,0.13688 -0.06884,0.35302 z m -0.736934,-2.00961 0.06884,-0.35302 1.128036,0.21997 -0.06884,0.35301 z m 1.034081,-0.51861 q -0.12376,-0.0241 -0.196017,-0.12878 -0.06983,-0.10628 -0.0457,-0.23004 0.02453,-0.12579 0.128781,-0.19601 0.106281,-0.0698 0.23004,-0.0457 0.125788,0.0245 0.196016,0.12878 0.07023,0.10425 0.0457,0.23004 -0.02413,0.12376 -0.128781,0.19601 -0.104252,0.0702 -0.230039,0.0457 z m 2.272046,3.00442 0.252854,-1.40367 q 0.03518,-0.1953 -0.04748,-0.3194 -0.08266,-0.12411 -0.265748,-0.15709 -0.508579,-0.0916 -0.616317,0.50647 l -0.02645,-0.57605 0.166814,0.03 q 0.05752,-0.21438 0.216942,-0.29487 0.15979,-0.0825 0.430354,-0.0338 0.341764,0.0616 0.491543,0.30278 0.149778,0.24121 0.08162,0.6196 l -0.252854,1.40367 z m -1.326372,-0.23893 0.388442,-2.15637 0.390588,0.0704 -0.0414,0.46302 -0.306357,1.70068 z m 2.309397,1.41437 0.04502,-0.39901 0.696758,0.0942 q 0.330023,0.0441 0.507223,-0.10261 0.17719,-0.14669 0.23419,-0.47877 l 0.26097,-1.57847 0.11631,-0.45008 0.39156,0.0647 -0.3257,1.97003 q -0.0954,0.57714 -0.40402,0.80896 -0.30859,0.23182 -0.886731,0.15509 z m 0.841691,-0.82041 q -0.424189,-0.0701 -0.59825,-0.38594 -0.172021,-0.31547 -0.08233,-0.85794 0.09306,-0.56287 0.359149,-0.81638 0.26813,-0.25318 0.692321,-0.18305 0.25288,0.0418 0.39103,0.18198 0.13815,0.14016 0.13094,0.34848 l 0.16723,0.0276 -0.24866,0.59162 q 0.0553,-0.33446 -0.0486,-0.52972 -0.10186,-0.19493 -0.35678,-0.23708 -0.26104,-0.0431 -0.42801,0.13037 -0.166965,0.17353 -0.230352,0.55693 -0.06002,0.36301 0.0439,0.57085 0.103916,0.20783 0.364952,0.25099 0.25492,0.0421 0.4141,-0.10962 0.16122,-0.15143 0.21652,-0.48589 l 0.045,0.64017 -0.18762,-0.031 q -0.0541,0.20056 -0.22595,0.28948 -0.16979,0.0892 -0.4186,0.0481 z m 4.97159,0.75249 q -0.24783,-0.0337 -0.45938,-0.10413 -0.20978,-0.0681 -0.38327,-0.17307 l 0.10947,-0.4065 q 0.21223,0.12687 0.41419,0.20646 0.20429,0.0778 0.40297,0.10482 0.28675,0.039 0.43967,-0.0425 0.15291,-0.0814 0.18074,-0.28627 0.0353,-0.26012 -0.21451,-0.41715 l -0.4727,-0.29786 q -0.27862,-0.17553 -0.41251,-0.38772 -0.13183,-0.21192 -0.0934,-0.49457 0.0518,-0.38097 0.30955,-0.55873 0.25779,-0.17775 0.67768,-0.1207 0.29289,0.0398 0.50651,0.15643 0.21362,0.11663 0.3961,0.3396 l -0.32627,0.25189 q -0.1602,-0.17196 -0.30901,-0.25893 -0.14649,-0.0887 -0.31649,-0.11184 -0.21097,-0.0287 -0.34163,0.0579 -0.12834,0.0848 -0.15533,0.28346 -0.0192,0.14133 0.0443,0.24174 0.0638,0.0984 0.20183,0.18805 l 0.39876,0.25861 q 0.30303,0.19554 0.4451,0.40884 0.14208,0.21331 0.10145,0.51235 -0.0537,0.39531 -0.33878,0.55893 -0.28275,0.16184 -0.80505,0.0909 z m 3.01756,0.34358 0.17161,-1.41591 q 0.0251,-0.20726 -0.0641,-0.3305 -0.0889,-0.1253 -0.2736,-0.14768 -0.51301,-0.0622 -0.58862,0.56164 l -0.0596,-0.57357 0.16827,0.0204 q 0.0451,-0.21733 0.1996,-0.30687 0.15477,-0.0916 0.42769,-0.0585 0.34475,0.0418 0.50817,0.27397 0.16342,0.23218 0.11716,0.61386 l -0.1716,1.41591 z m -1.33793,-0.16216 0.37305,-3.07806 0.43504,0.0527 -0.37305,3.07806 z m 3.34656,0.4292 q -0.45219,-0.0482 -0.67141,-0.37089 -0.21922,-0.3227 -0.16183,-0.86122 0.0576,-0.54058 0.33969,-0.80778 0.2823,-0.26926 0.7345,-0.22107 0.45424,0.0484 0.67141,0.37089 0.21944,0.32065 0.16183,0.86122 -0.0574,0.53852 -0.33969,0.80778 -0.28025,0.26948 -0.7345,0.22107 z m 0.0416,-0.39053 q 0.24049,0.0256 0.39057,-0.15378 0.15213,-0.17919 0.18981,-0.53272 0.0379,-0.35559 -0.0733,-0.56076 -0.1089,-0.20701 -0.34938,-0.23264 -0.24049,-0.0256 -0.39262,0.15356 -0.14986,0.17736 -0.18776,0.53295 -0.0377,0.35353 0.0712,0.56054 0.11096,0.20722 0.35144,0.23285 z m 2.42744,0.63561 q -0.45284,-0.0416 -0.6767,-0.36114 -0.22386,-0.3195 -0.17426,-0.8588 0.0498,-0.54135 0.32798,-0.8126 0.27838,-0.27331 0.73122,-0.23166 0.4549,0.0418 0.6767,0.36115 0.22405,0.31744 0.17426,0.85879 -0.0496,0.53929 -0.32798,0.8126 -0.27632,0.2735 -0.73122,0.23166 z m 0.036,-0.39109 q 0.24083,0.0221 0.3883,-0.15941 0.14953,-0.18137 0.18209,-0.53541 0.0328,-0.3561 -0.0814,-0.55964 -0.11188,-0.20541 -0.35271,-0.22756 -0.24083,-0.0222 -0.39036,0.15922 -0.14728,0.1795 -0.18003,0.5356 -0.0326,0.35404 0.0793,0.55945 0.11394,0.20561 0.35477,0.22775 z m 2.83191,0.63107 q -0.49668,-0.0384 -0.7033,-0.26176 -0.20457,-0.22316 -0.16947,-0.67655 l 0.0287,-0.37096 0.43691,0.0338 -0.0271,0.35035 q -0.0201,0.25968 0.0965,0.38688 0.11868,0.12736 0.40926,0.14985 0.10305,0.008 0.21926,0.007 0.11636,-0.003 0.26618,-0.0105 l 0.0198,0.38715 q -0.14617,0.0136 -0.28521,0.0153 -0.13698,0.002 -0.29154,-0.0101 z m -0.85682,-1.1444 0.14037,-1.81359 0.43691,0.0338 -0.14037,1.81358 z m -0.48663,-0.83794 0.0278,-0.35859 1.97846,0.15313 -0.0278,0.3586 z m 3.63312,2.1385 q -0.55907,-0.0352 -0.84598,-0.34728 -0.28472,-0.31407 -0.25009,-0.86489 0.0337,-0.53637 0.31026,-0.81723 0.27654,-0.28086 0.7469,-0.2513 0.44354,0.0279 0.66806,0.31124 0.22657,0.28349 0.19441,0.79511 -0.009,0.1506 -0.03,0.27979 l -1.53486,-0.0965 0.021,-0.3342 1.15114,0.0724 q 0.0185,-0.29501 -0.11188,-0.46062 -0.1303,-0.16766 -0.37786,-0.18322 -0.2785,-0.0175 -0.44516,0.16256 -0.16459,0.1802 -0.18637,0.52678 -0.0239,0.37959 0.17411,0.59086 0.20004,0.2114 0.58995,0.23591 0.13615,0.009 0.26909,0.002 0.13307,-0.008 0.27091,-0.0265 l 0.0295,0.38709 q -0.19625,0.0249 -0.35781,0.0251 -0.16156,2.1e-4 -0.28534,-0.008 z m 2.16575,-0.86546 -0.0949,-0.69165 0.1693,0.008 q 0.0663,-0.60108 0.63201,-0.57374 0.33861,0.0164 0.48201,0.21783 0.1434,0.20146 0.12245,0.63504 l -0.43358,-0.021 q 0.0116,-0.2395 -0.0556,-0.34829 -0.0651,-0.10869 -0.22409,-0.11637 -0.27873,-0.0135 -0.42863,0.21934 -0.14775,0.23085 -0.169,0.67062 z m -0.97046,0.89677 0.0174,-0.35924 1.46177,0.0706 -0.0174,0.35925 z m 0.48725,0.0236 0.10577,-2.18852 0.35512,0.0172 0.0523,0.63165 -0.0754,1.56087 z m -0.31626,-1.84883 0.0174,-0.35925 0.73089,0.0353 0.0239,0.36124 z m 5.87708,1.18924 q -0.16947,-0.003 -0.30634,-0.0886 -0.13687,-0.0853 -0.21686,-0.2254 -0.08,-0.14007 -0.0767,-0.30953 0.003,-0.16947 0.0886,-0.30634 0.0853,-0.13687 0.2254,-0.21686 0.14007,-0.08 0.30953,-0.0767 0.16947,0.003 0.30634,0.0886 0.13687,0.0853 0.21686,0.2254 0.08,0.14007 0.0767,0.30953 -0.003,0.16947 -0.0886,0.30634 -0.0853,0.13687 -0.2254,0.21686 -0.14007,0.08 -0.30953,0.0767 z m 4.07613,0.88794 -0.0284,-2.93508 0.41339,-0.004 0.0284,2.93508 z m -0.0111,-1.14923 -0.004,-0.39272 1.57089,-0.0152 0.004,0.39272 z m -0.0135,-1.39313 -0.004,-0.39272 1.94294,-0.0188 0.004,0.39272 z m 3.29839,2.49381 -0.0499,-2.06646 0.43809,-0.0106 0.0499,2.06645 z m -0.83484,0.0202 -0.009,-0.35956 0.87617,-0.0212 0.009,0.35957 z m 1.2316,-0.0298 -0.009,-0.35956 0.715,-0.0173 0.009,0.35956 z m -1.15186,-1.80411 -0.009,-0.35957 1.14895,-0.0278 0.009,0.35956 z m 0.89836,-0.72885 q -0.12605,0.003 -0.21912,-0.0836 -0.091,-0.0888 -0.0941,-0.21483 -0.003,-0.12812 0.0836,-0.21912 0.0888,-0.0911 0.21483,-0.0941 0.12812,-0.003 0.21913,0.0836 0.091,0.0867 0.0941,0.21483 0.003,0.12606 -0.0836,0.21913 -0.0867,0.091 -0.21483,0.0941 z m 2.86477,2.4453 -0.0551,-1.42521 q -0.008,-0.19829 -0.1151,-0.3017 -0.10743,-0.10341 -0.29332,-0.0962 -0.51638,0.02 -0.4929,0.62723 l -0.14979,-0.55687 0.16938,-0.007 q 0.01,-0.22173 0.14841,-0.33465 0.13829,-0.11498 0.413,-0.12561 0.347,-0.0134 0.54518,0.18992 0.19817,0.20334 0.21303,0.58752 l 0.0551,1.4252 z m -1.34672,0.0521 -0.0847,-2.18944 0.39658,-0.0153 0.0592,0.46108 0.0668,1.72677 z m 3.82123,-0.15158 -0.0634,-0.6466 -0.0675,-0.17857 -0.0301,-0.56558 q -0.0116,-0.21879 -0.17183,-0.3117 -0.15823,-0.0951 -0.4621,-0.0872 l -0.52506,0.0134 0.0206,-0.39026 0.44206,-0.0173 q 0.54331,-0.0206 0.81753,0.1925 0.27617,0.21094 0.29923,0.64441 l 0.0485,0.91235 0.37396,0.0257 0.0187,0.35091 z m -0.77089,0.0617 q -0.34265,0.0182 -0.53927,-0.13692 -0.19662,-0.15514 -0.21264,-0.45651 -0.0185,-0.34677 0.22969,-0.54627 0.2502,-0.1996 0.72289,-0.22474 0.19609,-0.0104 0.35016,0.006 0.15602,0.0145 0.27826,0.0556 l -0.075,0.30207 q -0.13995,-0.0236 -0.27227,-0.0207 -0.13244,8.3e-4 -0.27073,0.008 -0.56971,0.0303 -0.55126,0.37708 0.008,0.14449 0.10887,0.21777 0.10325,0.0732 0.28283,0.0636 0.20435,-0.0109 0.33685,-0.0883 0.13456,-0.0775 0.19686,-0.19056 0.0623,-0.11302 0.0562,-0.22861 l -0.0127,-0.23944 0.15783,0.55464 -0.17338,0.009 0.0667,-0.0698 q 0.0101,0.1899 -0.0718,0.3226 -0.08,0.13052 -0.23553,0.20297 -0.15565,0.0704 -0.37238,0.0819 z m 3.12439,-0.18889 q -0.37947,0.0257 -0.56255,-0.16909 -0.18307,-0.19478 -0.2138,-0.6485 l -0.15361,-2.26856 0.43722,-0.0296 0.15221,2.24794 q 0.0117,0.17324 0.0521,0.28031 0.0404,0.10707 0.13876,0.1522 0.10042,0.045 0.28809,0.0323 0.17117,-0.0116 0.43191,-0.10797 l 0.0755,0.38024 q -0.16398,0.0567 -0.31726,0.0878 -0.15121,0.031 -0.32857,0.043 z m -1.54911,-2.68374 -0.0243,-0.35884 0.68057,-0.0461 0.0243,0.35885 z m 4.02285,2.49349 q -0.37906,0.0312 -0.56494,-0.16092 -0.18587,-0.19212 -0.22316,-0.64534 l -0.18642,-2.2661 0.43674,-0.0359 0.18473,2.2455 q 0.0142,0.17305 0.0562,0.27952 0.0419,0.10648 0.14094,0.15018 0.10106,0.0435 0.28853,0.0281 0.17099,-0.0141 0.4303,-0.11421 l 0.081,0.37911 q -0.16314,0.059 -0.31595,0.0924 -0.15076,0.0331 -0.32792,0.0477 z m -1.58778,-2.66103 -0.0295,-0.35846 0.67983,-0.0559 0.0295,0.35846 z m 2.74495,3.51755 -0.0584,-0.38892 0.33754,-0.0742 q 0.21344,-0.0477 0.35693,-0.15294 0.14554,-0.10547 0.23725,-0.29503 0.0919,-0.1875 0.14631,-0.48351 l 0.36065,-1.93721 0.45263,-0.0438 -0.4371,2.04845 q -0.0856,0.40286 -0.21678,0.65647 -0.12914,0.2534 -0.32744,0.39306 -0.19624,0.13945 -0.48521,0.20067 z m 0.73145,-1.06767 -1.07944,-2.09679 0.45263,-0.0438 0.8912,1.78274 0.0658,-0.006 0.0319,0.32919 z m 4.32195,-0.46537 -0.3672,-2.91216 0.41017,-0.0517 0.3672,2.91216 z m -0.14377,-1.14026 -0.0491,-0.38965 1.55862,-0.19653 0.0491,0.38966 z m -0.17429,-1.38225 -0.0491,-0.38965 1.92777,-0.24308 0.0491,0.38966 z m 3.56438,2.09622 -0.28814,-2.04687 0.43394,-0.0611 0.28814,2.04688 z m -0.82694,0.11641 -0.0501,-0.35615 0.86787,-0.12217 0.0501,0.35615 z m 1.21994,-0.17173 -0.0501,-0.35616 0.70822,-0.0997 0.0501,0.35615 z m -1.35242,-1.65908 -0.0501,-0.35616 1.13807,-0.16021 0.0501,0.35616 z m 0.80822,-0.82768 q -0.12486,0.0176 -0.22731,-0.0578 -0.10069,-0.0777 -0.11827,-0.20253 -0.0179,-0.12691 0.0578,-0.22732 0.0777,-0.10069 0.20253,-0.11827 0.12691,-0.0179 0.22731,0.0578 0.10041,0.0756 0.11827,0.20253 0.0176,0.12486 -0.0578,0.22732 -0.0756,0.1004 -0.20253,0.11827 z m 3.12792,2.09838 -0.21915,-1.40933 q -0.0305,-0.19608 -0.14913,-0.28641 -0.11864,-0.0903 -0.30246,-0.0617 -0.51063,0.0794 -0.41725,0.6799 l -0.21303,-0.53587 0.16749,-0.026 q -0.0156,-0.22141 0.10881,-0.34953 0.1241,-0.13017 0.39576,-0.17241 0.34314,-0.0534 0.56345,0.12576 0.2203,0.17911 0.27938,0.55902 l 0.21914,1.40933 z m -1.33171,0.20708 -0.33666,-2.16506 0.39216,-0.061 0.11199,0.45117 0.26552,1.70754 z m 3.25718,-0.52346 -0.34696,-2.03773 0.432,-0.0736 0.34696,2.03773 z m -0.82324,0.14017 -0.0604,-0.35456 0.86399,-0.14712 0.0604,0.35457 z m 1.21449,-0.20679 -0.0604,-0.35457 0.70506,-0.12004 0.0604,0.35456 z m -1.39964,-1.61946 -0.0604,-0.35456 1.13298,-0.19291 0.0604,0.35456 z m 0.78406,-0.8506 q -0.12431,0.0212 -0.22888,-0.0512 -0.10289,-0.0747 -0.12406,-0.19905 -0.0215,-0.12634 0.0512,-0.22888 0.0747,-0.10289 0.19905,-0.12405 0.12633,-0.0215 0.22888,0.0512 0.10254,0.0727 0.12405,0.19904 0.0212,0.1243 -0.0512,0.22888 -0.0727,0.10255 -0.19904,0.12406 z m 2.58074,2.16177 q -0.2439,0.0452 -0.42133,0.0633 -0.1754,0.0178 -0.32573,0.0119 l -0.0234,-0.39927 q 0.21943,-0.007 0.38504,-0.0208 0.16765,-0.0142 0.31399,-0.0413 0.32724,-0.0606 0.46192,-0.15067 0.13633,-0.0925 0.11038,-0.23275 -0.0181,-0.0976 -0.0796,-0.13452 -0.0598,-0.0394 -0.17246,-0.0459 l -0.51926,-0.0342 q -0.33416,-0.0222 -0.50676,-0.11432 -0.17057,-0.0925 -0.21572,-0.33636 -0.0655,-0.35366 0.17552,-0.56223 0.24302,-0.20895 0.84668,-0.32069 0.1565,-0.029 0.29253,-0.0436 0.13769,-0.0171 0.2841,-0.0211 l 0.0245,0.38226 q -0.16765,0.0142 -0.29479,0.0315 -0.12715,0.0172 -0.24707,0.0394 -0.36179,0.067 -0.51273,0.16007 -0.15131,0.0911 -0.12535,0.23132 0.0173,0.0935 0.0923,0.12376 0.0746,0.0282 0.2192,0.0372 l 0.41644,0.0238 q 0.35448,0.0185 0.53619,0.12569 0.18374,0.10683 0.2319,0.367 0.0643,0.34756 -0.16039,0.55312 -0.2251,0.20354 -0.78608,0.30737 z m 3.04079,-0.62963 -0.27969,-1.39858 q -0.0409,-0.20472 -0.16417,-0.2939 -0.12364,-0.0912 -0.30607,-0.0547 -0.50673,0.10134 -0.3835,0.71752 l -0.23592,-0.52619 0.1662,-0.0332 q -0.0251,-0.22052 0.0937,-0.35389 0.11838,-0.1354 0.38796,-0.18931 0.34052,-0.0681 0.56834,0.10136 0.22783,0.16945 0.30322,0.54646 l 0.27969,1.39858 z M 161,194.72915 l -0.60802,-3.04038 0.42971,-0.0859 0.60801,3.04038 z m 5.6362,-1.1545 q -0.24375,0.056 -0.46655,0.0649 -0.22032,0.0104 -0.41969,-0.0265 l -0.0412,-0.41897 q 0.24337,0.0437 0.46043,0.0468 0.21861,6.3e-4 0.41401,-0.0443 0.28203,-0.0648 0.39632,-0.19506 0.11428,-0.13021 0.068,-0.33165 -0.0588,-0.25584 -0.34804,-0.31448 l -0.54744,-0.11167 q -0.32267,-0.0658 -0.52288,-0.21701 -0.1982,-0.15168 -0.26212,-0.42968 -0.0862,-0.37469 0.0922,-0.63205 0.17837,-0.25736 0.59134,-0.35231 0.28807,-0.0662 0.52912,-0.0326 0.24105,0.0337 0.49053,0.17778 l -0.21625,0.35091 q -0.21063,-0.10428 -0.38057,-0.13308 -0.16838,-0.0313 -0.33558,0.007 -0.2075,0.0477 -0.29916,0.17484 -0.0901,0.12465 -0.0452,0.32005 0.032,0.139 0.12688,0.2105 0.0944,0.0695 0.25524,0.10462 l 0.46441,0.10107 q 0.35257,0.0759 0.56083,0.22525 0.20827,0.14937 0.2759,0.44348 0.0894,0.3888 -0.11949,0.64257 -0.20735,0.25129 -0.72104,0.36941 z m 2.51261,-0.59595 q -0.44168,0.10823 -0.75746,-0.12086 -0.31577,-0.22909 -0.44466,-0.75509 -0.12938,-0.52802 0.0452,-0.87513 0.17409,-0.34912 0.61578,-0.45735 0.44369,-0.10872 0.75746,0.12086 0.31528,0.22708 0.44466,0.7551 0.12889,0.52601 -0.0452,0.87513 -0.17208,0.34862 -0.61578,0.45734 z m -0.0935,-0.38145 q 0.2349,-0.0576 0.31514,-0.27727 0.0823,-0.22021 -0.002,-0.56553 -0.0851,-0.34732 -0.25935,-0.50255 -0.17273,-0.15773 -0.40762,-0.10017 -0.2349,0.0576 -0.31715,0.27776 -0.0807,0.2177 0.004,0.56503 0.0846,0.34532 0.25733,0.50305 0.17474,0.15723 0.40963,0.0997 z m 3.04067,-0.40985 -0.42162,-1.62036 q -0.0572,-0.22005 -0.22129,-0.17737 -0.20805,0.0541 -0.13309,0.3422 l -0.22315,-0.26659 0.16403,-0.0427 q -0.0223,-0.12663 0.0423,-0.23955 0.0666,-0.11344 0.23464,-0.15717 0.22005,-0.0573 0.35078,0.0348 0.13073,0.092 0.19944,0.35606 l 0.43202,1.66037 z m -1.52834,0.39767 -0.55175,-2.12048 0.37609,-0.0978 0.1646,0.43561 0.43515,1.67237 z m 0.79617,-0.20717 -0.43202,-1.66037 q -0.0469,-0.18004 -0.21488,-0.13631 -0.20405,0.0531 -0.1291,0.34115 l -0.20314,-0.27179 0.13603,-0.0354 q -0.0551,-0.31031 0.28496,-0.3988 0.16604,-0.0432 0.28973,0.0464 0.12569,0.089 0.18607,0.32109 l 0.44243,1.70038 z m 2.79032,-0.70466 q -0.54006,0.14876 -0.91295,-0.053 -0.37144,-0.20428 -0.51801,-0.73637 -0.14272,-0.51814 0.0273,-0.87372 0.17006,-0.35559 0.62443,-0.48074 0.42846,-0.11802 0.73298,0.0768 0.30652,0.1943 0.44265,0.68852 0.0401,0.14548 0.0627,0.27432 l -1.48267,0.4084 -0.0889,-0.32284 1.112,-0.3063 q -0.0785,-0.28497 -0.25572,-0.3991 -0.17778,-0.11612 -0.41692,-0.0503 -0.26904,0.0741 -0.368,0.29861 -0.097,0.22396 -0.005,0.55876 0.101,0.36668 0.35697,0.50201 0.25796,0.13477 0.6346,0.031 0.13153,-0.0362 0.25523,-0.0853 0.12315,-0.0511 0.24754,-0.11321 l 0.15392,0.3564 q -0.17745,0.0875 -0.33015,0.14025 -0.15269,0.0528 -0.27226,0.0857 z m 2.56502,-0.73065 q -0.47835,0.1391 -0.75043,0.003 -0.27009,-0.13673 -0.39707,-0.5734 l -0.10389,-0.35727 0.42079,-0.12236 0.0981,0.33743 q 0.0727,0.25009 0.2267,0.32802 0.15596,0.0774 0.43582,-0.004 0.0992,-0.0289 0.20751,-0.0711 0.10769,-0.0442 0.2454,-0.10365 l 0.15499,0.35533 q -0.13201,0.0642 -0.26153,0.1148 -0.12754,0.05 -0.2764,0.0933 z m -1.20522,-0.76893 -0.5079,-1.74666 0.42078,-0.12236 0.50791,1.74666 z m -0.75075,-0.61262 -0.10043,-0.34536 1.90545,-0.55408 0.10043,0.34536 z m 4.375,0.61005 -0.41762,-1.36376 q -0.0611,-0.19962 -0.19263,-0.27609 -0.13211,-0.0784 -0.30999,-0.024 -0.49412,0.15131 -0.31013,0.75215 l -0.28716,-0.50007 0.16207,-0.0496 q -0.047,-0.21693 0.0579,-0.36147 0.1043,-0.14651 0.36717,-0.22701 0.33204,-0.10168 0.57561,0.0442 0.24357,0.14592 0.35614,0.51354 l 0.41762,1.36376 z m -1.28866,0.39461 -0.90785,-2.96469 0.41901,-0.12831 0.90785,2.96469 z m 3.14954,-0.9817 -0.63312,-1.96771 0.41715,-0.13422 0.63312,1.96771 z m -0.79496,0.25578 -0.11016,-0.34238 0.83431,-0.26844 0.11016,0.34238 z m 1.17276,-0.37734 -0.11017,-0.34238 0.68083,-0.21906 0.11017,0.34238 z m -1.61564,-1.40404 -0.11016,-0.34238 1.09404,-0.35201 0.11017,0.34238 z m 0.65517,-0.95343 q -0.12003,0.0386 -0.23384,-0.0181 -0.11246,-0.0593 -0.15108,-0.17938 -0.0393,-0.122 0.0181,-0.23384 0.0593,-0.11247 0.17938,-0.15109 0.122,-0.0392 0.23384,0.0181 0.11183,0.0574 0.15109,0.17938 0.0386,0.12003 -0.0181,0.23384 -0.0574,0.11183 -0.17938,0.15108 z m 3.44021,1.53447 -0.45596,-1.35142 q -0.0634,-0.18802 -0.19573,-0.25683 -0.13229,-0.0688 -0.30856,-0.009 -0.48965,0.16521 -0.29537,0.74103 l -0.30117,-0.49176 0.1606,-0.0542 q -0.0531,-0.21552 0.0477,-0.36296 0.10012,-0.1494 0.36061,-0.23729 0.32904,-0.11102 0.57663,0.028 0.2476,0.13898 0.37051,0.50328 l 0.45596,1.35142 z m -1.27699,0.43086 -0.70047,-2.0761 0.37605,-0.12688 0.1872,0.42551 0.55244,1.63737 z m 2.70502,0.12439 -0.15303,-0.37124 0.65581,-0.25352 q 0.31036,-0.12056 0.39483,-0.33453 0.0845,-0.21398 -0.0258,-0.53236 l -0.53275,-1.5086 -0.11521,-0.45036 0.37423,-0.13216 0.66491,1.88282 q 0.1948,0.55159 0.0363,0.90351 -0.15851,0.35192 -0.70196,0.56357 z m 0.34159,-1.12465 q -0.40541,0.14317 -0.71021,-0.0495 -0.30285,-0.19338 -0.48594,-0.71183 -0.18998,-0.53795 -0.0792,-0.88837 0.11276,-0.35111 0.51817,-0.49428 0.24169,-0.0854 0.43031,-0.0292 0.18863,0.0561 0.2828,0.2421 l 0.15982,-0.0564 0.0675,0.63819 q -0.11288,-0.31965 -0.29808,-0.44059 -0.18325,-0.12162 -0.42688,-0.0356 -0.24949,0.0881 -0.31205,0.32065 -0.0626,0.23254 0.0668,0.59897 0.12253,0.34694 0.3138,0.47887 0.19128,0.13194 0.44076,0.0438 0.24364,-0.086 0.30987,-0.29577 0.0682,-0.21041 -0.0447,-0.53006 l 0.34821,0.53907 -0.17932,0.0633 q 0.0493,0.20179 -0.0583,0.36256 -0.10569,0.16009 -0.34348,0.24406 z m 4.76285,-1.75424 q -0.45139,0.17379 -0.79293,0.0173 -0.34228,-0.15838 -0.51681,-0.61169 l 0.3858,-0.14854 q 0.1114,0.28935 0.31965,0.39301 0.21018,0.10292 0.48025,-0.001 0.26234,-0.101 0.34226,-0.3134 0.0811,-0.21507 -0.031,-0.50635 l -0.70111,-1.82099 0.38581,-0.14855 0.70111,1.821 q 0.17528,0.45525 0.023,0.80183 -0.15229,0.34658 -0.59596,0.5174 z m -1.09042,-2.34889 -0.14111,-0.36651 0.89892,-0.3461 0.14111,0.36651 z m 3.86015,1.23503 -0.26851,-0.59162 -0.12144,-0.14728 -0.21086,-0.52566 q -0.0816,-0.20335 -0.26317,-0.23964 -0.18044,-0.039 -0.46553,0.0665 l -0.49268,0.18204 -0.10631,-0.37606 0.41286,-0.15893 q 0.50763,-0.19473 0.83593,-0.0814 0.32945,0.1106 0.49106,0.51348 l 0.34015,0.84796 0.36225,-0.0963 0.13083,0.32614 z m -0.70981,0.307 q -0.31846,0.12775 -0.55461,0.0443 -0.23614,-0.0834 -0.3485,-0.36354 -0.12929,-0.3223 0.0413,-0.59116 0.17246,-0.26963 0.61179,-0.44586 0.18225,-0.0731 0.33345,-0.10704 0.15235,-0.0366 0.28132,-0.0371 l 0.0264,0.31012 q -0.14008,0.0228 -0.2644,0.0682 -0.12509,0.0435 -0.25363,0.0951 -0.52949,0.21241 -0.4002,0.53471 0.0539,0.13429 0.17328,0.17102 0.12133,0.036 0.28823,-0.031 0.18993,-0.0762 0.29038,-0.19221 0.10237,-0.11679 0.12489,-0.24386 0.0225,-0.12707 -0.0206,-0.23451 l -0.0893,-0.22254 0.32827,0.47411 -0.16115,0.0646 0.0406,-0.0875 q 0.0708,0.17649 0.036,0.32853 -0.0336,0.14935 -0.1575,0.26808 -0.12463,0.11681 -0.32607,0.19761 z m 3.10605,-1.31769 -0.64495,-1.54512 q -0.0876,-0.20983 -0.244,-0.14454 -0.19839,0.0828 -0.0837,0.3575 l -0.25837,-0.23262 0.15642,-0.0653 q -0.0398,-0.12225 0.008,-0.24312 0.05,-0.12167 0.21025,-0.18856 0.20983,-0.0876 0.35218,-0.0149 0.14236,0.0727 0.24746,0.32453 l 0.66087,1.58327 z m -1.45737,0.60831 -0.844,-2.022 0.35862,-0.14969 0.22413,0.40818 0.66565,1.59472 z m 0.7592,-0.31689 -0.66086,-1.58327 q -0.0717,-0.17168 -0.2319,-0.1048 -0.19457,0.0812 -0.0799,0.35591 l -0.2393,-0.24058 0.12972,-0.0542 q -0.0981,-0.2995 0.22614,-0.43486 0.15833,-0.0661 0.29337,0.005 0.13695,0.0705 0.22931,0.29179 l 0.67679,1.62142 z m 3.87833,-1.66565 -0.19014,-0.42218 q 0.46559,-0.62229 0.60284,-1.13298 0.13914,-0.51153 -0.0391,-0.90733 -0.10356,-0.22993 -0.26842,-0.29397 -0.16487,-0.064 -0.3948,0.0395 -0.15267,0.0687 -0.27863,0.23203 -0.12596,0.16328 -0.17849,0.36377 l -0.37638,-0.14107 q 0.046,-0.24516 0.23444,-0.46604 0.18843,-0.22089 0.45041,-0.33888 0.42406,-0.19099 0.72409,-0.0835 0.30107,0.10471 0.48357,0.50993 0.18335,0.4071 0.0941,0.89845 -0.0883,0.48862 -0.45876,1.07035 l 0.18335,0.4071 z m 0.11308,-0.0509 -0.15788,-0.35056 1.6284,-0.7334 0.15789,0.35056 z m 3.00332,-1.3261 q -0.90645,0.4234 -1.5363,-0.92503 -0.64734,-1.38589 0.25911,-1.80929 0.90644,-0.4234 1.55379,0.96249 0.62984,1.34843 -0.2766,1.77183 z m -0.49863,-1.06751 q -0.12548,0.0586 -0.24001,0.0186 -0.11352,-0.0428 -0.17213,-0.16827 -0.0595,-0.12735 -0.0186,-0.24001 0.0428,-0.11352 0.16827,-0.17213 0.12735,-0.0595 0.24001,-0.0186 0.11265,0.0409 0.17213,0.16827 0.0586,0.12548 0.0186,0.24001 -0.0409,0.11265 -0.16827,0.17213 z m 0.33767,0.72291 q 0.50566,-0.23619 0.0368,-1.24002 -0.48638,-1.04129 -0.99204,-0.8051 -0.50566,0.23619 -0.0193,1.27748 0.46888,1.00383 0.97455,0.76764 z m 1.55001,-0.35465 -0.20171,-0.41677 q 0.44825,-0.63489 0.57137,-1.14917 0.12498,-0.51518 -0.0641,-0.90591 -0.10986,-0.22699 -0.27642,-0.28646 -0.16657,-0.0595 -0.39356,0.0504 -0.15071,0.0729 -0.27212,0.23963 -0.12141,0.16669 -0.16839,0.36855 l -0.38013,-0.13063 q 0.0392,-0.24634 0.2215,-0.47234 0.18227,-0.226 0.44089,-0.35116 0.41863,-0.20262 0.72151,-0.10349 0.30384,0.0964 0.49745,0.4964 0.19451,0.40189 0.1188,0.89552 -0.0747,0.49086 -0.42906,1.08259 l 0.19451,0.40189 z m 0.11164,-0.054 -0.16749,-0.34607 1.60756,-0.77803 0.16749,0.34608 z m 2.96567,-1.40832 q -0.89446,0.44817 -1.56115,-0.88244 -0.68521,-1.36756 0.20925,-1.81572 0.89446,-0.44817 1.57967,0.9194 0.66669,1.3306 -0.22777,1.77876 z m -0.5278,-1.05339 q -0.12382,0.062 -0.2394,0.0252 -0.11466,-0.0397 -0.1767,-0.16348 -0.063,-0.12566 -0.0252,-0.2394 0.0396,-0.11466 0.16347,-0.1767 0.12567,-0.063 0.23941,-0.0252 0.11373,0.0378 0.1767,0.16348 0.062,0.12382 0.0252,0.2394 -0.0378,0.11373 -0.16348,0.1767 z m 0.35742,0.71335 q 0.49898,-0.25001 0.003,-1.24057 -0.51483,-1.02752 -1.0138,-0.77751 -0.49898,0.25001 0.0159,1.27753 0.49631,0.99056 0.99529,0.74055 z"
         id="text53"
         transform="translate(0.87007736,-2.5881336)"
         aria-label="Third-Person Scrolling Shooter • Finally Finish Something Jam 2020" />
      <path
         d="m 284.87173,473.95413 -2.53515,8.72265 h -2.57813 l 1.20313,-8.72265 z m -5.42838,0 -2.54948,8.72265 h -2.57812 l 1.21745,-8.72265 z m 14.78123,0 0.21485,12.08853 -0.11459,3.36588 1.31771,-3.29427 4.97005,-12.16014 h 4.65494 l -0.0716,12.08853 -0.0716,3.36588 1.33203,-3.23698 5.42838,-12.21743 h 4.48307 l -10.42707,21.11195 h -4.21094 l 0.0716,-12.34634 0.11458,-4.08202 -1.60416,4.08202 -5.17057,12.34634 h -4.09635 L 289.541,473.95413 Z m 26.18226,13.1341 h 5.35677 l -0.8737,-8.30728 z m 3.0651,-13.1341 h 4.98437 l 2.99349,21.11195 h -4.78385 l -0.44401,-4.33983 h -7.77733 l -2.37761,4.33983 h -4.61197 z m 25.33722,0 h 4.58332 L 341.705,495.06608 h -4.16797 l -2.64973,-21.11195 h 4.71223 l 1.17448,16.02732 z m 22.01429,3.73828 h -11.17186 l -0.94531,4.48306 h 10.2552 l -0.78776,3.66667 h -10.2552 l -1.14583,5.42838 h 11.68749 l -0.80209,3.79556 h -15.99868 l 4.48307,-21.11195 h 15.48306 z m 4.84114,10.85675 q -0.10026,1.44662 0.32943,2.16276 0.80208,1.30339 3.40885,1.30339 1.56119,0 2.60677,-0.34375 1.99088,-0.65886 2.36327,-2.44922 0.22917,-1.04557 -0.57291,-1.61849 -0.78776,-0.55859 -2.66406,-0.98828 l -2.13411,-0.5013 q -3.13672,-0.74479 -4.21094,-1.61849 -1.819,-1.46093 -1.16015,-4.569 0.60156,-2.83594 3.0651,-4.71224 2.46354,-1.8763 6.45963,-1.8763 3.33723,0 5.31379,1.77604 1.97656,1.76172 1.375,5.1276 h -4.23958 q 0.30078,-1.90494 -1.07421,-2.70703 -0.91667,-0.52994 -2.44922,-0.52994 -1.70442,0 -2.8789,0.6875 -1.16016,0.6875 -1.41797,1.91926 -0.24349,1.13151 0.64453,1.69011 0.55859,0.37239 2.5638,0.87369 l 3.45182,0.8737 q 2.26302,0.57292 3.27994,1.53255 1.57552,1.48958 0.97396,4.31119 -0.61588,2.89323 -3.23697,4.8125 -2.6211,1.90494 -6.66015,1.90494 -4.125,0 -6.08724,-1.8763 -1.96223,-1.89062 -1.26041,-5.18489 z m 34.81898,-14.59503 -0.80209,3.73828 h -6.3164 l -3.68098,17.37367 h -4.4401 l 3.68099,-17.37367 h -6.34505 l 0.80208,-3.73828 z m 17.388,3.73828 h -11.17186 l -0.94531,4.48306 h 10.2552 l -0.78776,3.66667 h -10.2552 l -1.14583,5.42838 h 11.68748 l -0.80208,3.79556 h -15.99868 l 4.48307,-21.11195 h 15.48305 z m 12.56118,-0.0716 h -4.11067 l -1.31771,6.21614 h 4.11068 q 1.56119,0 2.59244,-0.75911 1.03125,-0.75912 1.375,-2.40625 0.35807,-1.64713 -0.3724,-2.34896 -0.71614,-0.70182 -2.27734,-0.70182 z m -1.71874,9.85416 h -4.48307 l -1.60417,7.59113 h -4.3828 l 4.48306,-21.11195 h 9.1953 q 3.17969,0 4.71224,1.63281 1.54687,1.63281 0.83073,5.05598 -0.80209,3.73828 -3.02213,5.28515 -2.22005,1.54688 -5.72916,1.54688 z m 20.91143,-13.52082 -2.53516,8.72265 h -2.57812 l 1.20312,-8.72265 z m -5.42838,0 -2.54948,8.72265 h -2.57812 l 1.21745,-8.72265 z"
         id="text54"
         style="font-style:oblique;font-weight:bold;font-size:29.3333px;font-family:Helvetica;-inkscape-font-specification:'Helvetica Bold Oblique';letter-spacing:0px;word-spacing:0px;white-space:pre;fill:#333333;stroke-width:4.04032;stroke-miterlimit:3.4"
         transform="matrix(0.26458333,0,0,0.26458333,31.376395,-1.4142885)"
         aria-label="&quot;WAVESTEP&quot;" />
    </g>
  </g>
  <script
     id="mesh_polyfill"
     type="text/javascript">
!function(){const t=&quot;http://www.w3.org/2000/svg&quot;,e=&quot;http://www.w3.org/1999/xlink&quot;,s=&quot;http://www.w3.org/1999/xhtml&quot;,r=2;if(document.createElementNS(t,&quot;meshgradient&quot;).x)return;const n=(t,e,s,r)=&gt;{let n=new x(.5*(e.x+s.x),.5*(e.y+s.y)),o=new x(.5*(t.x+e.x),.5*(t.y+e.y)),i=new x(.5*(s.x+r.x),.5*(s.y+r.y)),a=new x(.5*(n.x+o.x),.5*(n.y+o.y)),h=new x(.5*(n.x+i.x),.5*(n.y+i.y)),l=new x(.5*(a.x+h.x),.5*(a.y+h.y));return[[t,o,a,l],[l,h,i,r]]},o=t=&gt;{let e=t[0].distSquared(t[1]),s=t[2].distSquared(t[3]),r=.25*t[0].distSquared(t[2]),n=.25*t[1].distSquared(t[3]),o=e&gt;s?e:s,i=r&gt;n?r:n;return 18*(o&gt;i?o:i)},i=(t,e)=&gt;Math.sqrt(t.distSquared(e)),a=(t,e)=&gt;t.scale(2/3).add(e.scale(1/3)),h=t=&gt;{let e,s,r,n,o,i,a,h=new g;return t.match(/(\w+\(\s*[^)]+\))+/g).forEach(t=&gt;{let l=t.match(/[\w.-]+/g),d=l.shift();switch(d){case&quot;translate&quot;:2===l.length?e=new g(1,0,0,1,l[0],l[1]):(console.error(&quot;mesh.js: translate does not have 2 arguments!&quot;),e=new g(1,0,0,1,0,0)),h=h.append(e);break;case&quot;scale&quot;:1===l.length?s=new g(l[0],0,0,l[0],0,0):2===l.length?s=new g(l[0],0,0,l[1],0,0):(console.error(&quot;mesh.js: scale does not have 1 or 2 arguments!&quot;),s=new g(1,0,0,1,0,0)),h=h.append(s);break;case&quot;rotate&quot;:if(3===l.length&amp;&amp;(e=new g(1,0,0,1,l[1],l[2]),h=h.append(e)),l[0]){r=l[0]*Math.PI/180;let t=Math.cos(r),e=Math.sin(r);Math.abs(t)&lt;1e-16&amp;&amp;(t=0),Math.abs(e)&lt;1e-16&amp;&amp;(e=0),a=new g(t,e,-e,t,0,0),h=h.append(a)}else console.error(&quot;math.js: No argument to rotate transform!&quot;);3===l.length&amp;&amp;(e=new g(1,0,0,1,-l[1],-l[2]),h=h.append(e));break;case&quot;skewX&quot;:l[0]?(r=l[0]*Math.PI/180,n=Math.tan(r),o=new g(1,0,n,1,0,0),h=h.append(o)):console.error(&quot;math.js: No argument to skewX transform!&quot;);break;case&quot;skewY&quot;:l[0]?(r=l[0]*Math.PI/180,n=Math.tan(r),i=new g(1,n,0,1,0,0),h=h.append(i)):console.error(&quot;math.js: No argument to skewY transform!&quot;);break;case&quot;matrix&quot;:6===l.length?h=h.append(new g(...l)):console.error(&quot;math.js: Incorrect number of arguments for matrix!&quot;);break;default:console.error(&quot;mesh.js: Unhandled transform type: &quot;+d)}}),h},l=t=&gt;{let e=[],s=t.split(/[ ,]+/);for(let t=0,r=s.length-1;t&lt;r;t+=2)e.push(new x(parseFloat(s[t]),parseFloat(s[t+1])));return e},d=(t,e)=&gt;{for(let s in e)t.setAttribute(s,e[s])},c=(t,e,s,r,n)=&gt;{let o,i,a=[0,0,0,0];for(let h=0;h&lt;3;++h)e[h]&lt;t[h]&amp;&amp;e[h]&lt;s[h]||t[h]&lt;e[h]&amp;&amp;s[h]&lt;e[h]?a[h]=0:(a[h]=.5*((e[h]-t[h])/r+(s[h]-e[h])/n),o=Math.abs(3*(e[h]-t[h])/r),i=Math.abs(3*(s[h]-e[h])/n),a[h]&gt;o?a[h]=o:a[h]&gt;i&amp;&amp;(a[h]=i));return a},u=[[1,0,0,0,0,0,0,0,0,0,0,0,0,0,0,0],[0,0,0,0,1,0,0,0,0,0,0,0,0,0,0,0],[-3,3,0,0,-2,-1,0,0,0,0,0,0,0,0,0,0],[2,-2,0,0,1,1,0,0,0,0,0,0,0,0,0,0],[0,0,0,0,0,0,0,0,1,0,0,0,0,0,0,0],[0,0,0,0,0,0,0,0,0,0,0,0,1,0,0,0],[0,0,0,0,0,0,0,0,-3,3,0,0,-2,-1,0,0],[0,0,0,0,0,0,0,0,2,-2,0,0,1,1,0,0],[-3,0,3,0,0,0,0,0,-2,0,-1,0,0,0,0,0],[0,0,0,0,-3,0,3,0,0,0,0,0,-2,0,-1,0],[9,-9,-9,9,6,3,-6,-3,6,-6,3,-3,4,2,2,1],[-6,6,6,-6,-3,-3,3,3,-4,4,-2,2,-2,-2,-1,-1],[2,0,-2,0,0,0,0,0,1,0,1,0,0,0,0,0],[0,0,0,0,2,0,-2,0,0,0,0,0,1,0,1,0],[-6,6,6,-6,-4,-2,4,2,-3,3,-3,3,-2,-1,-2,-1],[4,-4,-4,4,2,2,-2,-2,2,-2,2,-2,1,1,1,1]],f=t=&gt;{let e=[];for(let s=0;s&lt;16;++s){e[s]=0;for(let r=0;r&lt;16;++r)e[s]+=u[s][r]*t[r]}return e},p=(t,e,s)=&gt;{const r=e*e,n=s*s,o=e*e*e,i=s*s*s;return t[0]+t[1]*e+t[2]*r+t[3]*o+t[4]*s+t[5]*s*e+t[6]*s*r+t[7]*s*o+t[8]*n+t[9]*n*e+t[10]*n*r+t[11]*n*o+t[12]*i+t[13]*i*e+t[14]*i*r+t[15]*i*o},y=t=&gt;{let e=[],s=[],r=[];for(let s=0;s&lt;4;++s)e[s]=[],e[s][0]=n(t[0][s],t[1][s],t[2][s],t[3][s]),e[s][1]=[],e[s][1].push(...n(...e[s][0][0])),e[s][1].push(...n(...e[s][0][1])),e[s][2]=[],e[s][2].push(...n(...e[s][1][0])),e[s][2].push(...n(...e[s][1][1])),e[s][2].push(...n(...e[s][1][2])),e[s][2].push(...n(...e[s][1][3]));for(let t=0;t&lt;8;++t){s[t]=[];for(let r=0;r&lt;4;++r)s[t][r]=[],s[t][r][0]=n(e[0][2][t][r],e[1][2][t][r],e[2][2][t][r],e[3][2][t][r]),s[t][r][1]=[],s[t][r][1].push(...n(...s[t][r][0][0])),s[t][r][1].push(...n(...s[t][r][0][1])),s[t][r][2]=[],s[t][r][2].push(...n(...s[t][r][1][0])),s[t][r][2].push(...n(...s[t][r][1][1])),s[t][r][2].push(...n(...s[t][r][1][2])),s[t][r][2].push(...n(...s[t][r][1][3]))}for(let t=0;t&lt;8;++t){r[t]=[];for(let e=0;e&lt;8;++e)r[t][e]=[],r[t][e][0]=s[t][0][2][e],r[t][e][1]=s[t][1][2][e],r[t][e][2]=s[t][2][2][e],r[t][e][3]=s[t][3][2][e]}return r};class x{constructor(t,e){this.x=t||0,this.y=e||0}toString(){return`(x=${this.x}, y=${this.y})`}clone(){return new x(this.x,this.y)}add(t){return new x(this.x+t.x,this.y+t.y)}scale(t){return void 0===t.x?new x(this.x*t,this.y*t):new x(this.x*t.x,this.y*t.y)}distSquared(t){let e=this.x-t.x,s=this.y-t.y;return e*e+s*s}transform(t){let e=this.x*t.a+this.y*t.c+t.e,s=this.x*t.b+this.y*t.d+t.f;return new x(e,s)}}class g{constructor(t,e,s,r,n,o){void 0===t?(this.a=1,this.b=0,this.c=0,this.d=1,this.e=0,this.f=0):(this.a=t,this.b=e,this.c=s,this.d=r,this.e=n,this.f=o)}toString(){return`affine: ${this.a} ${this.c} ${this.e} \n       ${this.b} ${this.d} ${this.f}`}append(t){t instanceof g||console.error(&quot;mesh.js: argument to Affine.append is not affine!&quot;);let e=this.a*t.a+this.c*t.b,s=this.b*t.a+this.d*t.b,r=this.a*t.c+this.c*t.d,n=this.b*t.c+this.d*t.d,o=this.a*t.e+this.c*t.f+this.e,i=this.b*t.e+this.d*t.f+this.f;return new g(e,s,r,n,o,i)}}class w{constructor(t,e){this.nodes=t,this.colors=e}paintCurve(t,e){if(o(this.nodes)&gt;r){const s=n(...this.nodes);let r=[[],[]],o=[[],[]];for(let t=0;t&lt;4;++t)r[0][t]=this.colors[0][t],r[1][t]=(this.colors[0][t]+this.colors[1][t])/2,o[0][t]=r[1][t],o[1][t]=this.colors[1][t];let i=new w(s[0],r),a=new w(s[1],o);i.paintCurve(t,e),a.paintCurve(t,e)}else{let s=Math.round(this.nodes[0].x);if(s&gt;=0&amp;&amp;s&lt;e){let r=4*(~~this.nodes[0].y*e+s);t[r]=Math.round(this.colors[0][0]),t[r+1]=Math.round(this.colors[0][1]),t[r+2]=Math.round(this.colors[0][2]),t[r+3]=Math.round(this.colors[0][3])}}}}class m{constructor(t,e){this.nodes=t,this.colors=e}split(){let t=[[],[],[],[]],e=[[],[],[],[]],s=[[[],[]],[[],[]]],r=[[[],[]],[[],[]]];for(let s=0;s&lt;4;++s){const r=n(this.nodes[0][s],this.nodes[1][s],this.nodes[2][s],this.nodes[3][s]);t[0][s]=r[0][0],t[1][s]=r[0][1],t[2][s]=r[0][2],t[3][s]=r[0][3],e[0][s]=r[1][0],e[1][s]=r[1][1],e[2][s]=r[1][2],e[3][s]=r[1][3]}for(let t=0;t&lt;4;++t)s[0][0][t]=this.colors[0][0][t],s[0][1][t]=this.colors[0][1][t],s[1][0][t]=(this.colors[0][0][t]+this.colors[1][0][t])/2,s[1][1][t]=(this.colors[0][1][t]+this.colors[1][1][t])/2,r[0][0][t]=s[1][0][t],r[0][1][t]=s[1][1][t],r[1][0][t]=this.colors[1][0][t],r[1][1][t]=this.colors[1][1][t];return[new m(t,s),new m(e,r)]}paint(t,e){let s,n=!1;for(let t=0;t&lt;4;++t)if((s=o([this.nodes[0][t],this.nodes[1][t],this.nodes[2][t],this.nodes[3][t]]))&gt;r){n=!0;break}if(n){let s=this.split();s[0].paint(t,e),s[1].paint(t,e)}else{new w([...this.nodes[0]],[...this.colors[0]]).paintCurve(t,e)}}}class b{constructor(t){this.readMesh(t),this.type=t.getAttribute(&quot;type&quot;)||&quot;bilinear&quot;}readMesh(t){let e=[[]],s=[[]],r=Number(t.getAttribute(&quot;x&quot;)),n=Number(t.getAttribute(&quot;y&quot;));e[0][0]=new x(r,n);let o=t.children;for(let t=0,r=o.length;t&lt;r;++t){e[3*t+1]=[],e[3*t+2]=[],e[3*t+3]=[],s[t+1]=[];let r=o[t].children;for(let n=0,o=r.length;n&lt;o;++n){let o=r[n].children;for(let r=0,i=o.length;r&lt;i;++r){let i=r;0!==t&amp;&amp;++i;let h,d=o[r].getAttribute(&quot;path&quot;),c=&quot;l&quot;;null!=d&amp;&amp;(c=(h=d.match(/\s*([lLcC])\s*(.*)/))[1]);let u=l(h[2]);switch(c){case&quot;l&quot;:0===i?(e[3*t][3*n+3]=u[0].add(e[3*t][3*n]),e[3*t][3*n+1]=a(e[3*t][3*n],e[3*t][3*n+3]),e[3*t][3*n+2]=a(e[3*t][3*n+3],e[3*t][3*n])):1===i?(e[3*t+3][3*n+3]=u[0].add(e[3*t][3*n+3]),e[3*t+1][3*n+3]=a(e[3*t][3*n+3],e[3*t+3][3*n+3]),e[3*t+2][3*n+3]=a(e[3*t+3][3*n+3],e[3*t][3*n+3])):2===i?(0===n&amp;&amp;(e[3*t+3][3*n+0]=u[0].add(e[3*t+3][3*n+3])),e[3*t+3][3*n+1]=a(e[3*t+3][3*n],e[3*t+3][3*n+3]),e[3*t+3][3*n+2]=a(e[3*t+3][3*n+3],e[3*t+3][3*n])):(e[3*t+1][3*n]=a(e[3*t][3*n],e[3*t+3][3*n]),e[3*t+2][3*n]=a(e[3*t+3][3*n],e[3*t][3*n]));break;case&quot;L&quot;:0===i?(e[3*t][3*n+3]=u[0],e[3*t][3*n+1]=a(e[3*t][3*n],e[3*t][3*n+3]),e[3*t][3*n+2]=a(e[3*t][3*n+3],e[3*t][3*n])):1===i?(e[3*t+3][3*n+3]=u[0],e[3*t+1][3*n+3]=a(e[3*t][3*n+3],e[3*t+3][3*n+3]),e[3*t+2][3*n+3]=a(e[3*t+3][3*n+3],e[3*t][3*n+3])):2===i?(0===n&amp;&amp;(e[3*t+3][3*n+0]=u[0]),e[3*t+3][3*n+1]=a(e[3*t+3][3*n],e[3*t+3][3*n+3]),e[3*t+3][3*n+2]=a(e[3*t+3][3*n+3],e[3*t+3][3*n])):(e[3*t+1][3*n]=a(e[3*t][3*n],e[3*t+3][3*n]),e[3*t+2][3*n]=a(e[3*t+3][3*n],e[3*t][3*n]));break;case&quot;c&quot;:0===i?(e[3*t][3*n+1]=u[0].add(e[3*t][3*n]),e[3*t][3*n+2]=u[1].add(e[3*t][3*n]),e[3*t][3*n+3]=u[2].add(e[3*t][3*n])):1===i?(e[3*t+1][3*n+3]=u[0].add(e[3*t][3*n+3]),e[3*t+2][3*n+3]=u[1].add(e[3*t][3*n+3]),e[3*t+3][3*n+3]=u[2].add(e[3*t][3*n+3])):2===i?(e[3*t+3][3*n+2]=u[0].add(e[3*t+3][3*n+3]),e[3*t+3][3*n+1]=u[1].add(e[3*t+3][3*n+3]),0===n&amp;&amp;(e[3*t+3][3*n+0]=u[2].add(e[3*t+3][3*n+3]))):(e[3*t+2][3*n]=u[0].add(e[3*t+3][3*n]),e[3*t+1][3*n]=u[1].add(e[3*t+3][3*n]));break;case&quot;C&quot;:0===i?(e[3*t][3*n+1]=u[0],e[3*t][3*n+2]=u[1],e[3*t][3*n+3]=u[2]):1===i?(e[3*t+1][3*n+3]=u[0],e[3*t+2][3*n+3]=u[1],e[3*t+3][3*n+3]=u[2]):2===i?(e[3*t+3][3*n+2]=u[0],e[3*t+3][3*n+1]=u[1],0===n&amp;&amp;(e[3*t+3][3*n+0]=u[2])):(e[3*t+2][3*n]=u[0],e[3*t+1][3*n]=u[1]);break;default:console.error(&quot;mesh.js: &quot;+c+&quot; invalid path type.&quot;)}if(0===t&amp;&amp;0===n||r&gt;0){let e=window.getComputedStyle(o[r]).stopColor.match(/^rgb\s*\(\s*(\d+)\s*,\s*(\d+)\s*,\s*(\d+)\s*\)$/i),a=window.getComputedStyle(o[r]).stopOpacity,h=255;a&amp;&amp;(h=Math.floor(255*a)),e&amp;&amp;(0===i?(s[t][n]=[],s[t][n][0]=Math.floor(e[1]),s[t][n][1]=Math.floor(e[2]),s[t][n][2]=Math.floor(e[3]),s[t][n][3]=h):1===i?(s[t][n+1]=[],s[t][n+1][0]=Math.floor(e[1]),s[t][n+1][1]=Math.floor(e[2]),s[t][n+1][2]=Math.floor(e[3]),s[t][n+1][3]=h):2===i?(s[t+1][n+1]=[],s[t+1][n+1][0]=Math.floor(e[1]),s[t+1][n+1][1]=Math.floor(e[2]),s[t+1][n+1][2]=Math.floor(e[3]),s[t+1][n+1][3]=h):3===i&amp;&amp;(s[t+1][n]=[],s[t+1][n][0]=Math.floor(e[1]),s[t+1][n][1]=Math.floor(e[2]),s[t+1][n][2]=Math.floor(e[3]),s[t+1][n][3]=h))}}e[3*t+1][3*n+1]=new x,e[3*t+1][3*n+2]=new x,e[3*t+2][3*n+1]=new x,e[3*t+2][3*n+2]=new x,e[3*t+1][3*n+1].x=(-4*e[3*t][3*n].x+6*(e[3*t][3*n+1].x+e[3*t+1][3*n].x)+-2*(e[3*t][3*n+3].x+e[3*t+3][3*n].x)+3*(e[3*t+3][3*n+1].x+e[3*t+1][3*n+3].x)+-1*e[3*t+3][3*n+3].x)/9,e[3*t+1][3*n+2].x=(-4*e[3*t][3*n+3].x+6*(e[3*t][3*n+2].x+e[3*t+1][3*n+3].x)+-2*(e[3*t][3*n].x+e[3*t+3][3*n+3].x)+3*(e[3*t+3][3*n+2].x+e[3*t+1][3*n].x)+-1*e[3*t+3][3*n].x)/9,e[3*t+2][3*n+1].x=(-4*e[3*t+3][3*n].x+6*(e[3*t+3][3*n+1].x+e[3*t+2][3*n].x)+-2*(e[3*t+3][3*n+3].x+e[3*t][3*n].x)+3*(e[3*t][3*n+1].x+e[3*t+2][3*n+3].x)+-1*e[3*t][3*n+3].x)/9,e[3*t+2][3*n+2].x=(-4*e[3*t+3][3*n+3].x+6*(e[3*t+3][3*n+2].x+e[3*t+2][3*n+3].x)+-2*(e[3*t+3][3*n].x+e[3*t][3*n+3].x)+3*(e[3*t][3*n+2].x+e[3*t+2][3*n].x)+-1*e[3*t][3*n].x)/9,e[3*t+1][3*n+1].y=(-4*e[3*t][3*n].y+6*(e[3*t][3*n+1].y+e[3*t+1][3*n].y)+-2*(e[3*t][3*n+3].y+e[3*t+3][3*n].y)+3*(e[3*t+3][3*n+1].y+e[3*t+1][3*n+3].y)+-1*e[3*t+3][3*n+3].y)/9,e[3*t+1][3*n+2].y=(-4*e[3*t][3*n+3].y+6*(e[3*t][3*n+2].y+e[3*t+1][3*n+3].y)+-2*(e[3*t][3*n].y+e[3*t+3][3*n+3].y)+3*(e[3*t+3][3*n+2].y+e[3*t+1][3*n].y)+-1*e[3*t+3][3*n].y)/9,e[3*t+2][3*n+1].y=(-4*e[3*t+3][3*n].y+6*(e[3*t+3][3*n+1].y+e[3*t+2][3*n].y)+-2*(e[3*t+3][3*n+3].y+e[3*t][3*n].y)+3*(e[3*t][3*n+1].y+e[3*t+2][3*n+3].y)+-1*e[3*t][3*n+3].y)/9,e[3*t+2][3*n+2].y=(-4*e[3*t+3][3*n+3].y+6*(e[3*t+3][3*n+2].y+e[3*t+2][3*n+3].y)+-2*(e[3*t+3][3*n].y+e[3*t][3*n+3].y)+3*(e[3*t][3*n+2].y+e[3*t+2][3*n].y)+-1*e[3*t][3*n].y)/9}}this.nodes=e,this.colors=s}paintMesh(t,e){let s=(this.nodes.length-1)/3,r=(this.nodes[0].length-1)/3;if(&quot;bilinear&quot;===this.type||s&lt;2||r&lt;2){let n;for(let o=0;o&lt;s;++o)for(let s=0;s&lt;r;++s){let r=[];for(let t=3*o,e=3*o+4;t&lt;e;++t)r.push(this.nodes[t].slice(3*s,3*s+4));let i=[];i.push(this.colors[o].slice(s,s+2)),i.push(this.colors[o+1].slice(s,s+2)),(n=new m(r,i)).paint(t,e)}}else{let n,o,a,h,l,d,u;const x=s,g=r;s++,r++;let w=new Array(s);for(let t=0;t&lt;s;++t){w[t]=new Array(r);for(let e=0;e&lt;r;++e)w[t][e]=[],w[t][e][0]=this.nodes[3*t][3*e],w[t][e][1]=this.colors[t][e]}for(let t=0;t&lt;s;++t)for(let e=0;e&lt;r;++e)0!==t&amp;&amp;t!==x&amp;&amp;(n=i(w[t-1][e][0],w[t][e][0]),o=i(w[t+1][e][0],w[t][e][0]),w[t][e][2]=c(w[t-1][e][1],w[t][e][1],w[t+1][e][1],n,o)),0!==e&amp;&amp;e!==g&amp;&amp;(n=i(w[t][e-1][0],w[t][e][0]),o=i(w[t][e+1][0],w[t][e][0]),w[t][e][3]=c(w[t][e-1][1],w[t][e][1],w[t][e+1][1],n,o));for(let t=0;t&lt;r;++t){w[0][t][2]=[],w[x][t][2]=[];for(let e=0;e&lt;4;++e)n=i(w[1][t][0],w[0][t][0]),o=i(w[x][t][0],w[x-1][t][0]),w[0][t][2][e]=n&gt;0?2*(w[1][t][1][e]-w[0][t][1][e])/n-w[1][t][2][e]:0,w[x][t][2][e]=o&gt;0?2*(w[x][t][1][e]-w[x-1][t][1][e])/o-w[x-1][t][2][e]:0}for(let t=0;t&lt;s;++t){w[t][0][3]=[],w[t][g][3]=[];for(let e=0;e&lt;4;++e)n=i(w[t][1][0],w[t][0][0]),o=i(w[t][g][0],w[t][g-1][0]),w[t][0][3][e]=n&gt;0?2*(w[t][1][1][e]-w[t][0][1][e])/n-w[t][1][3][e]:0,w[t][g][3][e]=o&gt;0?2*(w[t][g][1][e]-w[t][g-1][1][e])/o-w[t][g-1][3][e]:0}for(let s=0;s&lt;x;++s)for(let r=0;r&lt;g;++r){let n=i(w[s][r][0],w[s+1][r][0]),o=i(w[s][r+1][0],w[s+1][r+1][0]),c=i(w[s][r][0],w[s][r+1][0]),x=i(w[s+1][r][0],w[s+1][r+1][0]),g=[[],[],[],[]];for(let t=0;t&lt;4;++t){(d=[])[0]=w[s][r][1][t],d[1]=w[s+1][r][1][t],d[2]=w[s][r+1][1][t],d[3]=w[s+1][r+1][1][t],d[4]=w[s][r][2][t]*n,d[5]=w[s+1][r][2][t]*n,d[6]=w[s][r+1][2][t]*o,d[7]=w[s+1][r+1][2][t]*o,d[8]=w[s][r][3][t]*c,d[9]=w[s+1][r][3][t]*x,d[10]=w[s][r+1][3][t]*c,d[11]=w[s+1][r+1][3][t]*x,d[12]=0,d[13]=0,d[14]=0,d[15]=0,u=f(d);for(let e=0;e&lt;9;++e){g[t][e]=[];for(let s=0;s&lt;9;++s)g[t][e][s]=p(u,e/8,s/8),g[t][e][s]&gt;255?g[t][e][s]=255:g[t][e][s]&lt;0&amp;&amp;(g[t][e][s]=0)}}h=[];for(let t=3*s,e=3*s+4;t&lt;e;++t)h.push(this.nodes[t].slice(3*r,3*r+4));l=y(h);for(let s=0;s&lt;8;++s)for(let r=0;r&lt;8;++r)(a=new m(l[s][r],[[[g[0][s][r],g[1][s][r],g[2][s][r],g[3][s][r]],[g[0][s][r+1],g[1][s][r+1],g[2][s][r+1],g[3][s][r+1]]],[[g[0][s+1][r],g[1][s+1][r],g[2][s+1][r],g[3][s+1][r]],[g[0][s+1][r+1],g[1][s+1][r+1],g[2][s+1][r+1],g[3][s+1][r+1]]]])).paint(t,e)}}}transform(t){if(t instanceof x)for(let e=0,s=this.nodes.length;e&lt;s;++e)for(let s=0,r=this.nodes[0].length;s&lt;r;++s)this.nodes[e][s]=this.nodes[e][s].add(t);else if(t instanceof g)for(let e=0,s=this.nodes.length;e&lt;s;++e)for(let s=0,r=this.nodes[0].length;s&lt;r;++s)this.nodes[e][s]=this.nodes[e][s].transform(t)}scale(t){for(let e=0,s=this.nodes.length;e&lt;s;++e)for(let s=0,r=this.nodes[0].length;s&lt;r;++s)this.nodes[e][s]=this.nodes[e][s].scale(t)}}document.querySelectorAll(&quot;rect,circle,ellipse,path,text&quot;).forEach((r,n)=&gt;{let o=r.getAttribute(&quot;id&quot;);o||(o=&quot;patchjs_shape&quot;+n,r.setAttribute(&quot;id&quot;,o));const i=r.style.fill.match(/^url\(\s*&quot;?\s*#([^\s&quot;]+)&quot;?\s*\)/),a=r.style.stroke.match(/^url\(\s*&quot;?\s*#([^\s&quot;]+)&quot;?\s*\)/);if(i&amp;&amp;i[1]){const a=document.getElementById(i[1]);if(a&amp;&amp;&quot;meshgradient&quot;===a.nodeName){const i=r.getBBox();let l=document.createElementNS(s,&quot;canvas&quot;);d(l,{width:i.width,height:i.height});const c=l.getContext(&quot;2d&quot;);let u=c.createImageData(i.width,i.height);const f=new b(a);&quot;objectBoundingBox&quot;===a.getAttribute(&quot;gradientUnits&quot;)&amp;&amp;f.scale(new x(i.width,i.height));const p=a.getAttribute(&quot;gradientTransform&quot;);null!=p&amp;&amp;f.transform(h(p)),&quot;userSpaceOnUse&quot;===a.getAttribute(&quot;gradientUnits&quot;)&amp;&amp;f.transform(new x(-i.x,-i.y)),f.paintMesh(u.data,l.width),c.putImageData(u,0,0);const y=document.createElementNS(t,&quot;image&quot;);d(y,{width:i.width,height:i.height,x:i.x,y:i.y});let g=l.toDataURL();y.setAttributeNS(e,&quot;xlink:href&quot;,g),r.parentNode.insertBefore(y,r),r.style.fill=&quot;none&quot;;const w=document.createElementNS(t,&quot;use&quot;);w.setAttributeNS(e,&quot;xlink:href&quot;,&quot;#&quot;+o);const m=&quot;patchjs_clip&quot;+n,M=document.createElementNS(t,&quot;clipPath&quot;);M.setAttribute(&quot;id&quot;,m),M.appendChild(w),r.parentElement.insertBefore(M,r),y.setAttribute(&quot;clip-path&quot;,&quot;url(#&quot;+m+&quot;)&quot;),u=null,l=null,g=null}}if(a&amp;&amp;a[1]){const o=document.getElementById(a[1]);if(o&amp;&amp;&quot;meshgradient&quot;===o.nodeName){const i=parseFloat(r.style.strokeWidth.slice(0,-2))*(parseFloat(r.style.strokeMiterlimit)||parseFloat(r.getAttribute(&quot;stroke-miterlimit&quot;))||1),a=r.getBBox(),l=Math.trunc(a.width+i),c=Math.trunc(a.height+i),u=Math.trunc(a.x-i/2),f=Math.trunc(a.y-i/2);let p=document.createElementNS(s,&quot;canvas&quot;);d(p,{width:l,height:c});const y=p.getContext(&quot;2d&quot;);let g=y.createImageData(l,c);const w=new b(o);&quot;objectBoundingBox&quot;===o.getAttribute(&quot;gradientUnits&quot;)&amp;&amp;w.scale(new x(l,c));const m=o.getAttribute(&quot;gradientTransform&quot;);null!=m&amp;&amp;w.transform(h(m)),&quot;userSpaceOnUse&quot;===o.getAttribute(&quot;gradientUnits&quot;)&amp;&amp;w.transform(new x(-u,-f)),w.paintMesh(g.data,p.width),y.putImageData(g,0,0);const M=document.createElementNS(t,&quot;image&quot;);d(M,{width:l,height:c,x:0,y:0});let S=p.toDataURL();M.setAttributeNS(e,&quot;xlink:href&quot;,S);const k=&quot;pattern_clip&quot;+n,A=document.createElementNS(t,&quot;pattern&quot;);d(A,{id:k,patternUnits:&quot;userSpaceOnUse&quot;,width:l,height:c,x:u,y:f}),A.appendChild(M),o.parentNode.appendChild(A),r.style.stroke=&quot;url(#&quot;+k+&quot;)&quot;,g=null,p=null,S=null}}})}();
</script>
</svg>
